<svg xmlns="http://www.w3.org/2000/svg" viewBox="0 0 84.27 56.75"><defs><style>.cls-1{isolation:isolate;}.cls-2{fill:#e9f0f9;}.cls-3{fill:#ee8462;}.cls-4{fill:#fef6e3;}.cls-5{fill:#d8d8d8;}.cls-6{fill:#de5a37;}.cls-7{fill:#d84b27;}.cls-8{fill:#152247;}.cls-9{fill:#fcccbc;}.cls-10{fill:#fff;}.cls-11{fill:#2d2d2d;}.cls-12{fill:#de1f26;}.cls-13{fill:#de4536;}.cls-14{fill:#f7f7f7;}.cls-15{fill:#594e70;}.cls-16{fill:#82cfec;}.cls-17{fill:#56c1ee;mix-blend-mode:multiply;}.cls-18{fill:#8a5e3c;}.cls-19{fill:#6bbd65;}.cls-20{fill:none;stroke:#e9f0f9;stroke-miterlimit:10;stroke-width:0.01px;}.cls-21{fill:#cde3f5;}.cls-22{fill:#dd4637;}.cls-23{fill:#fdc113;}.cls-24{fill:#38bba0;}.cls-25{fill:#3eacaf;}.cls-26{fill:#dfe6f4;}.cls-27{fill:#de4635;}</style></defs><title>Drupal Developers Studio</title><g class="cls-1"><g id="Layer_2" data-name="Layer 2"><g id="Layer_1-2" data-name="Layer 1"><path class="cls-2" d="M74.82,56.05c2.45-.48,4.34-2.92,5.94-5.18a18.86,18.86,0,0,0,3.45-9.17,13.72,13.72,0,0,0-2.49-9.44c-3.24-4.13-8.92-4.73-11.85-9.19-2.2-3.37-2.58-8.58-5.75-10.59a6.59,6.59,0,0,0-5.77-.21,55.37,55.37,0,0,1-5.64,2.16,9.61,9.61,0,0,1-5.89-.52c-3.34-1.4-5.91-4.56-8.8-7S31.27,2.76,28.09,4.6c-3.68,2.13-4.66,7.86-7.61,11.23-4,4.61-11,4-15,8.58-3,3.43-3.28,9-2.26,13.86C4.58,44.73-2.51,48.73,1,54.16c3.17,4.94,15.38-.45,18.45.28,5.14,1.22,15.08,2.18,22.64.3C50.45,52.65,61.16,58.74,74.82,56.05Z"/><circle class="cls-2" cx="17.69" cy="12.92" r="1.97"/><circle class="cls-2" cx="65.5" cy="10.81" r="1.14"/><circle class="cls-2" cx="22.39" cy="6.12" r="0.71"/><circle class="cls-2" cx="80.32" cy="27.55" r="1.73"/><circle class="cls-2" cx="5.99" cy="20.79" r="0.98"/><circle class="cls-2" cx="47.74" cy="8.09" r="3.26"/><circle class="cls-2" cx="38.8" cy="0.71" r="0.71"/><circle class="cls-2" cx="5.58" cy="13.09" r="0.71"/><circle class="cls-2" cx="81.86" cy="25.19" r="0.16"/><rect class="cls-3" x="69.94" y="40.02" width="5.52" height="1.25" transform="translate(145.4 81.29) rotate(-180)"/><rect class="cls-3" x="69.94" y="42.2" width="5.52" height="1.25" transform="translate(145.4 85.64) rotate(-180)"/><rect class="cls-4" x="69.22" y="39.27" width="0.72" height="15.81" transform="translate(139.16 94.35) rotate(-180)"/><rect class="cls-3" x="69.94" y="44.37" width="5.52" height="1.25" transform="translate(145.4 89.99) rotate(-180)"/><path class="cls-5" d="M68,55.3c0,.2-2,.37-4.45.37s-4.45-.17-4.45-.37,2-.37,4.45-.37S68,55.09,68,55.3Z"/><rect class="cls-4" x="66.42" y="46.55" width="0.72" height="8.53" transform="translate(133.56 101.63) rotate(-180)"/><rect class="cls-6" x="66.42" y="46.55" width="9.04" height="1.25" transform="translate(141.88 94.35) rotate(-180)"/><rect class="cls-4" x="71.98" y="46.55" width="0.72" height="8.53" transform="translate(144.68 101.63) rotate(-180)"/><rect class="cls-4" x="75.46" y="39.27" width="0.72" height="15.81" transform="translate(151.64 94.35) rotate(-180)"/><rect class="cls-7" x="71.95" y="46.55" width="3.51" height="1.25" transform="translate(147.41 94.35) rotate(-180)"/><path class="cls-8" d="M64.44,45.66h1.7L67,38.55c.24-.95,0-1.83-1-1.83H64.44Z"/><polygon class="cls-8" points="65.09 54.15 66.14 54.15 66.14 45.58 64.44 45.58 65.09 54.15"/><path class="cls-8" d="M62.24,45.66h1.7L64.78,39c.3-1.18-.06-2.27-1.28-2.27l-1.23,0Z"/><polygon class="cls-8" points="62.9 54.15 63.94 54.15 63.94 45.58 62.24 45.58 62.9 54.15"/><path class="cls-9" d="M68.42,38l-.1,1.33h0a.69.69,0,0,0,.69-.54l.14-.71Z"/><path class="cls-10" d="M66.51,29.45s1.5.1,1.7,1,1.07,3.33,1.07,3.33l-.1,4.33L68.39,38,68,34l-1.38-3.3s-1-1.12-.75-1.1A2.45,2.45,0,0,0,66.51,29.45Z"/><path class="cls-11" d="M63.93,54.09l.18.83-3,0a4.38,4.38,0,0,1,2.06-.84Z"/><path class="cls-10" d="M66,54.13l.16.84-3-.08a5.06,5.06,0,0,1,1.79-.73,1.15,1.15,0,0,1,.32,0Z"/><path class="cls-10" d="M62.24,37.94H67.1l.65-7.36a1.23,1.23,0,0,0-1.3-1.15H63.29A1.23,1.23,0,0,0,62,30.58Z"/><path class="cls-11" d="M66.19,54.13l.16.84-3.13-.08a5.23,5.23,0,0,1,1.83-.73,1.22,1.22,0,0,1,.33,0Z"/><path class="cls-9" d="M64.78,24.62h0a1.53,1.53,0,0,1,1.53,1.53v1.67a1,1,0,0,1-1,1H64.25a1,1,0,0,1-1-1V26.14a1.53,1.53,0,0,1,1.53-1.53Z" transform="translate(129.56 53.42) rotate(-180)"/><path class="cls-9" d="M55.21,32.09,54,31.45h0a.68.68,0,0,1,.83-.28l.68.27Z"/><path class="cls-10" d="M62.18,30,59.46,33l-3.92-1.62-.41.63,4,2.14a1.12,1.12,0,0,0,.86.11l2.07-1.93A19.88,19.88,0,0,1,62.18,30Z"/><polygon class="cls-12" points="64.78 30.89 65.28 30.42 64.81 30.41 64.6 30.41 64.28 30.45 64.78 30.89"/><polygon class="cls-13" points="64.78 30.71 64.76 30.9 64.28 35.86 64.74 36.61 65.28 35.86 64.78 30.71"/><path class="cls-14" d="M64.6,30.41l-.08-.25c-.4,0-.36-.74-.36-.74h-.31l.38.91v.46Z"/><path class="cls-14" d="M64.94,30.41l.09-.25c.4-.05.36-.75.36-.75h.31l-.38.91v.47Z"/><path class="cls-9" d="M64.15,28.11h1.23a0,0,0,0,1,0,0v1.81a.36.36,0,0,1-.36.36H64.5a.36.36,0,0,1-.36-.36V28.11A0,0,0,0,1,64.15,28.11Z"/><path class="cls-15" d="M65.67,27.56h0c-.22-.53-.92-.4-.92-.4s-.69-.13-.91.4c0,0-.13,1.12.4,1.33a1.62,1.62,0,0,0,1.14-.05C65.78,28.66,65.67,27.93,65.67,27.56Zm-1,.17a.63.63,0,0,1-.56-.31h1.13A.66.66,0,0,1,64.71,27.73Z"/><path class="cls-15" d="M63.22,25.55s-.34-1.11.25-1.58,1.9-.1,2.18-.43.72,0,.75.33.15.27.28.42a.54.54,0,0,1,.08.54c-.07.21-.23.62-.53.54,0,0-.33-.47-.72-.36s-.32.29-.81.21-.73-.7-1-.31S63.36,25.57,63.22,25.55Z"/><polygon class="cls-16" points="9.34 56.24 5.48 56.24 4.46 52.12 10.36 52.12 9.34 56.24"/><polygon class="cls-17" points="4.7 53.06 4.92 53.98 9.9 53.98 10.13 53.06 4.7 53.06"/><rect class="cls-18" x="7.12" y="46.19" width="0.59" height="5.8"/><rect class="cls-16" x="4.06" y="51.99" width="6.69" height="1.37"/><path class="cls-19" d="M10.62,47.42a2.81,2.81,0,0,1-1.06,1.5,2.82,2.82,0,0,1-1.82.26,2.75,2.75,0,0,1,1.07-1.49A2.75,2.75,0,0,1,10.62,47.42Z"/><path class="cls-19" d="M10.59,49.61a2.79,2.79,0,0,1-1.07,1.5,2.74,2.74,0,0,1-1.82.26,2.75,2.75,0,0,1,1.07-1.49A2.78,2.78,0,0,1,10.59,49.61Z"/><path class="cls-19" d="M10,44.73a2.79,2.79,0,0,1-.63,1.73,2.77,2.77,0,0,1-1.68.74,2.78,2.78,0,0,1,.63-1.73A2.77,2.77,0,0,1,10,44.73Z"/><path class="cls-19" d="M7.12,50.42a2.77,2.77,0,0,1-1.83-.2,2.76,2.76,0,0,1-1.11-1.45A2.75,2.75,0,0,1,6,49,2.77,2.77,0,0,1,7.12,50.42Z"/><path class="cls-19" d="M7.15,48.56a2.77,2.77,0,0,1-1.69-.73,2.75,2.75,0,0,1-.65-1.72,2.77,2.77,0,0,1,1.69.73A2.75,2.75,0,0,1,7.15,48.56Z"/><path class="cls-19" d="M5.89,43.17a2.8,2.8,0,0,0,0,1.84,2.78,2.78,0,0,0,1.31,1.28,2.77,2.77,0,0,0,0-1.84A2.78,2.78,0,0,0,5.89,43.17Z"/><path class="cls-20" d="M18.34,31.3a2.1,2.1,0,0,0,.38.85,1.59,1.59,0,0,1,.3.46A1,1,0,0,1,19,33l-.15,2.08c-.05.71-.1,1.42-.2,2.13"/><rect class="cls-21" x="15.88" y="19.87" width="38.79" height="29.34" rx="1" ry="1"/><rect class="cls-10" x="17.66" y="23.85" width="35.19" height="23.33"/><circle class="cls-22" cx="18.19" cy="21.94" r="0.47"/><circle class="cls-23" cx="19.66" cy="21.94" r="0.47"/><circle class="cls-24" cx="21.13" cy="21.94" r="0.47"/><rect class="cls-10" x="22.96" y="21.38" width="16.74" height="1.11"/><rect class="cls-10" x="44.51" y="21.4" width="1.5" height="1.11"/><rect class="cls-10" x="46.73" y="21.4" width="1.5" height="1.11"/><rect class="cls-10" x="48.94" y="21.4" width="1.5" height="1.11"/><path class="cls-10" d="M52.64,21.67h-1a.15.15,0,0,1-.14-.15.14.14,0,0,1,.14-.14h1a.15.15,0,0,1,.15.14A.15.15,0,0,1,52.64,21.67Z"/><path class="cls-10" d="M52.64,22.1h-1a.14.14,0,0,1-.14-.14.15.15,0,0,1,.14-.15h1a.15.15,0,0,1,.15.15A.15.15,0,0,1,52.64,22.1Z"/><path class="cls-10" d="M52.64,22.53h-1a.14.14,0,0,1,0-.28h1a.14.14,0,1,1,0,.28Z"/><rect class="cls-25" x="19.19" y="27.46" width="31.87" height="7.08"/><rect class="cls-26" x="19.19" y="36.06" width="8.43" height="3.37"/><rect class="cls-10" x="20.66" y="31.42" width="1.89" height="0.37"/><rect class="cls-26" x="20.7" y="32.09" width="11.08" height="0.44"/><rect class="cls-26" x="20.7" y="32.79" width="5.93" height="0.44"/><rect class="cls-26" x="35.77" y="25.25" width="1.91" height="0.44"/><rect class="cls-26" x="38.26" y="25.25" width="2.78" height="0.44"/><rect class="cls-26" x="41.64" y="25.25" width="2.78" height="0.44"/><rect class="cls-26" x="44.92" y="25.25" width="2.78" height="0.44"/><rect class="cls-26" x="48.28" y="25.25" width="2.78" height="0.44"/><rect class="cls-27" x="19.19" y="24.98" width="8.94" height="0.97"/><rect class="cls-26" x="19.22" y="40.03" width="3.87" height="0.62"/><rect class="cls-26" x="19.22" y="40.94" width="7.24" height="0.41"/><rect class="cls-26" x="19.22" y="41.59" width="8.06" height="0.41"/><rect class="cls-26" x="30.86" y="36.05" width="8.43" height="3.37"/><rect class="cls-26" x="30.89" y="40.03" width="3.87" height="0.62"/><rect class="cls-26" x="30.89" y="40.93" width="7.24" height="0.41"/><rect class="cls-26" x="30.89" y="41.58" width="8.06" height="0.41"/><rect class="cls-26" x="42.62" y="35.96" width="8.43" height="3.37"/><rect class="cls-26" x="42.54" y="39.93" width="3.87" height="0.62"/><rect class="cls-26" x="42.54" y="40.84" width="7.24" height="0.41"/><rect class="cls-26" x="42.54" y="41.48" width="8.06" height="0.41"/><rect class="cls-26" x="19.19" y="43.85" width="31.87" height="2.26"/></g></g></g></svg>