<svg xmlns="http://www.w3.org/2000/svg" xmlns:xlink="http://www.w3.org/1999/xlink" viewBox="0 0 84.27 56.75"><defs><style>.cls-1,.cls-53{fill:none;}.cls-2{isolation:isolate;}.cls-3{fill:#e9f0f9;}.cls-4{fill:#cde3f5;}.cls-5{fill:#fff;}.cls-6{fill:#dd4637;}.cls-7{fill:#fdc113;}.cls-8{fill:#38bba0;}.cls-9{fill:#dddddc;}.cls-10{fill:#00a79d;}.cls-11{fill:#a8a9ac;}.cls-12{fill:#e7e7e7;}.cls-13{fill:#595b5c;}.cls-14{fill:#232020;}.cls-15{fill:#5b5a5c;}.cls-16{fill:#68c3ee;}.cls-17{fill:#5194b5;}.cls-18{fill:#e6e7e7;}.cls-19{opacity:0.5;mix-blend-mode:multiply;}.cls-20{clip-path:url(#clip-path);}.cls-21{clip-path:url(#clip-path-2);}.cls-22{clip-path:url(#clip-path-3);}.cls-23{clip-path:url(#clip-path-4);}.cls-24{clip-path:url(#clip-path-5);}.cls-25{clip-path:url(#clip-path-6);}.cls-26{clip-path:url(#clip-path-7);}.cls-27{fill:#6e6f71;}.cls-28{fill:#007e76;}.cls-29{clip-path:url(#clip-path-8);}.cls-30{clip-path:url(#clip-path-9);}.cls-31{fill:#47a5ce;}.cls-32{fill:#a6a9ab;}.cls-33{fill:#4f4f50;}.cls-34{fill:#5bb9cc;}.cls-35{clip-path:url(#clip-path-10);}.cls-36{clip-path:url(#clip-path-11);}.cls-37{clip-path:url(#clip-path-12);}.cls-38{clip-path:url(#clip-path-13);}.cls-39{clip-path:url(#clip-path-14);}.cls-40{clip-path:url(#clip-path-15);}.cls-41{clip-path:url(#clip-path-16);}.cls-42{clip-path:url(#clip-path-17);}.cls-43{clip-path:url(#clip-path-18);}.cls-44{clip-path:url(#clip-path-19);}.cls-45{clip-path:url(#clip-path-20);}.cls-46{clip-path:url(#clip-path-21);}.cls-47{fill:#fcccbc;}.cls-48{fill:#152247;}.cls-49{fill:#2d2d2d;}.cls-50{fill:#594e70;}.cls-51{fill:#2381bd;}.cls-52{fill:#597a9f;}.cls-53{stroke:#de4635;stroke-miterlimit:10;stroke-width:0.75px;}</style><clipPath id="clip-path"><rect class="cls-1" x="53.4" y="28.76" width="0.56" height="1.11"/></clipPath><clipPath id="clip-path-2"><rect class="cls-1" x="46.36" y="29.03" width="0.24" height="0.48"/></clipPath><clipPath id="clip-path-3"><rect class="cls-1" x="49.48" y="29" width="0.27" height="0.54"/></clipPath><clipPath id="clip-path-4"><rect class="cls-1" x="47.1" y="27.6" width="0.3" height="0.6"/></clipPath><clipPath id="clip-path-5"><rect class="cls-1" x="48.76" y="27.73" width="0.18" height="0.37"/></clipPath><clipPath id="clip-path-6"><rect class="cls-1" x="48.54" y="30.23" width="0.41" height="0.81"/></clipPath><clipPath id="clip-path-7"><rect class="cls-1" x="47.15" y="30.37" width="0.27" height="0.54"/></clipPath><clipPath id="clip-path-8"><rect class="cls-1" x="43.84" y="24.36" width="0.35" height="0.7"/></clipPath><clipPath id="clip-path-9"><rect class="cls-1" x="51.72" y="35.82" width="0.41" height="0.82"/></clipPath><clipPath id="clip-path-10"><rect class="cls-1" x="38.26" y="23.9" width="0.21" height="0.42"/></clipPath><clipPath id="clip-path-11"><rect class="cls-1" x="52.15" y="39.43" width="0.21" height="0.42"/></clipPath><clipPath id="clip-path-12"><rect class="cls-1" x="52" y="31.48" width="0.53" height="1.05"/></clipPath><clipPath id="clip-path-13"><rect class="cls-1" x="41.72" y="38.87" width="0.53" height="1.05"/></clipPath><clipPath id="clip-path-14"><rect class="cls-1" x="28.36" y="25.16" width="0.49" height="0.25"/></clipPath><clipPath id="clip-path-15"><rect class="cls-1" x="28.36" y="23.35" width="0.49" height="0.25"/></clipPath><clipPath id="clip-path-16"><rect class="cls-1" x="27.18" y="26.37" width="0.49" height="0.25"/></clipPath><clipPath id="clip-path-17"><rect class="cls-1" x="35.21" y="34.78" width="0.34" height="0.69"/></clipPath><clipPath id="clip-path-18"><rect class="cls-1" x="34.74" y="23.64" width="0.34" height="0.69"/></clipPath><clipPath id="clip-path-19"><rect class="cls-1" x="26.21" y="30.14" width="0.34" height="0.69"/></clipPath><clipPath id="clip-path-20"><rect class="cls-1" x="32.87" y="38.65" width="0.21" height="0.43"/></clipPath><clipPath id="clip-path-21"><rect class="cls-1" x="27.69" y="35.06" width="0.21" height="0.43"/></clipPath></defs><title>Asset 1</title><g class="cls-2"><g id="Layer_2" data-name="Layer 2"><g id="Layer_1-2" data-name="Layer 1"><path class="cls-3" d="M74.82,56.05c2.45-.48,4.34-2.92,5.94-5.18a18.86,18.86,0,0,0,3.45-9.17,13.72,13.72,0,0,0-2.49-9.44c-3.24-4.13-8.92-4.73-11.85-9.19-2.2-3.37-2.58-8.58-5.75-10.59a6.59,6.59,0,0,0-5.77-.21,55.37,55.37,0,0,1-5.64,2.16,9.61,9.61,0,0,1-5.89-.52c-3.34-1.4-5.91-4.56-8.8-7S31.27,2.76,28.09,4.6c-3.68,2.13-4.66,7.86-7.61,11.23-4,4.61-11,4-15,8.58-3,3.43-3.28,9-2.26,13.86C4.58,44.73-2.51,48.73,1,54.16c3.17,4.94,15.38-.45,18.45.28,5.14,1.22,15.08,2.18,22.64.3C50.45,52.65,61.16,58.74,74.82,56.05Z"/><circle class="cls-3" cx="17.69" cy="12.92" r="1.97"/><circle class="cls-3" cx="65.5" cy="10.81" r="1.14"/><circle class="cls-3" cx="22.39" cy="6.12" r="0.71"/><circle class="cls-3" cx="80.32" cy="27.55" r="1.73"/><circle class="cls-3" cx="5.99" cy="20.79" r="0.98"/><circle class="cls-3" cx="47.74" cy="8.09" r="3.26"/><circle class="cls-3" cx="38.8" cy="0.71" r="0.71"/><circle class="cls-3" cx="5.58" cy="13.09" r="0.71"/><rect class="cls-4" x="20.56" y="16.11" width="38.79" height="29.34" rx="1" ry="1"/><rect class="cls-5" x="22.34" y="20.09" width="35.19" height="23.33"/><circle class="cls-6" cx="22.87" cy="18.18" r="0.47"/><circle class="cls-7" cx="24.34" cy="18.18" r="0.47"/><circle class="cls-8" cx="25.82" cy="18.18" r="0.47"/><rect class="cls-5" x="27.65" y="17.62" width="16.74" height="1.11"/><rect class="cls-5" x="49.2" y="17.64" width="1.5" height="1.11"/><rect class="cls-5" x="51.41" y="17.64" width="1.5" height="1.11"/><rect class="cls-5" x="53.62" y="17.64" width="1.5" height="1.11"/><path class="cls-5" d="M57.33,17.91h-1a.15.15,0,0,1-.15-.15.15.15,0,0,1,.15-.14h1a.14.14,0,0,1,.14.14A.15.15,0,0,1,57.33,17.91Z"/><path class="cls-5" d="M57.33,18.34h-1a.15.15,0,0,1-.15-.15.15.15,0,0,1,.15-.14h1a.14.14,0,0,1,.14.14A.15.15,0,0,1,57.33,18.34Z"/><path class="cls-5" d="M57.33,18.77h-1a.15.15,0,0,1-.15-.14.15.15,0,0,1,.15-.15h1a.15.15,0,0,1,.14.15A.14.14,0,0,1,57.33,18.77Z"/><circle class="cls-3" cx="81.4" cy="20.04" r="0.16"/><path class="cls-9" d="M45.78,36.24a.87.87,0,1,1,.86-.86A.87.87,0,0,1,45.78,36.24Zm0-1.64a.78.78,0,1,0,.78.78A.78.78,0,0,0,45.78,34.6Z"/><path class="cls-9" d="M45.13,35.13a.41.41,0,1,1,.41-.41A.41.41,0,0,1,45.13,35.13Zm0-.74a.33.33,0,1,0,0,.66.33.33,0,0,0,0-.66Z"/><path class="cls-10" d="M37.28,36.64l-.21-.13,0-.08.21.13Zm-.31-.2-.2-.14.06-.07.19.14Zm-.29-.21-.19-.16.06-.07.18.16ZM36.4,36l-.18-.16.06-.07.18.16Zm-.27-.25L36,35.56,36,35.5l.17.18Zm-.25-.27-.15-.19.07-.05.15.18Zm-.23-.28-.14-.2.08-.05.14.19Zm-.21-.3-.13-.21.08,0,.13.2Zm-.19-.31-.12-.21.08,0,.12.21Zm-.17-.32A2.14,2.14,0,0,1,35,34l.08,0,.1.22Zm-.15-.34-.09-.22.09,0a2,2,0,0,0,.08.22Zm-.13-.34a1.55,1.55,0,0,1-.07-.23l.08,0c0,.07,0,.15.08.22Zm-.11-.35L34.63,33l.09,0,.06.23Zm-.08-.35c0-.08,0-.16,0-.24h.09c0,.07,0,.15.05.23Zm-.06-.36,0-.24h.09l0,.24Zm0-.36a2,2,0,0,1,0-.25h.09a1.93,1.93,0,0,0,0,.24Zm0-.37v-.06a1.09,1.09,0,0,1,0-.18h.09a1.09,1.09,0,0,0,0,.18v.06Zm.1-.36H34.5a1.94,1.94,0,0,1,0-.24h.09C34.6,31.27,34.6,31.35,34.59,31.43Zm0-.35-.09,0a2,2,0,0,1,0-.24l.09,0A2,2,0,0,0,34.62,31.08Zm.06-.36-.09,0a1.55,1.55,0,0,1,0-.23l.08,0C34.71,30.56,34.69,30.64,34.68,30.72Zm.07-.35-.09,0c0-.08.05-.16.07-.24l.09,0A2,2,0,0,0,34.75,30.37Zm.1-.34-.09,0c0-.08.06-.16.08-.23l.09,0C34.9,29.87,34.88,30,34.85,30Zm.12-.34-.08,0,.09-.22.08,0Zm.14-.33-.08,0,.11-.22.08,0Zm.17-.32L35.2,29l.12-.21.08,0Zm.18-.31-.08-.05c0-.07.09-.14.14-.2l.07.05Zm.2-.3-.07-.05c0-.07.09-.13.15-.2l.07.06Zm.22-.28-.07-.06.16-.18L36,28Zm.24-.27-.07-.06.18-.18.06.07C36.23,27.76,36.18,27.82,36.12,27.88Zm.26-.25-.07-.07.19-.16,0,.07A1.29,1.29,0,0,0,36.38,27.63Zm.27-.24-.06-.07.19-.15.06.07Zm.28-.22,0-.07.2-.14.05.08Zm.3-.2,0-.08.21-.12,0,.08Zm.31-.18,0-.08.22-.11,0,.08Zm.32-.16,0-.08.22-.1,0,.09Zm.34-.14,0-.08.23-.08,0,.08Zm.34-.11,0-.09.23-.07,0,.09Zm.34-.1,0-.09.24-.05,0,.09Z"/><path class="cls-11" d="M35.89,34.87A5.19,5.19,0,0,1,35,33a5.26,5.26,0,0,1,.58-3.91,5.26,5.26,0,0,1,5.3-2.52,5.22,5.22,0,0,1,3.45,2.07,5.48,5.48,0,0,1,1,2.33,5.3,5.3,0,0,1-.21,2.44l-.07,0a5.19,5.19,0,0,0,.2-2.41,4.94,4.94,0,0,0-.33-1.18,5.11,5.11,0,0,0-2.15-2.49,5.17,5.17,0,0,0-7.09,1.81A5.17,5.17,0,0,0,36,34.82Z"/><rect class="cls-12" x="54.05" y="28.16" width="0.9" height="0.9"/><rect class="cls-12" x="54.11" y="28.21" width="0.79" height="0.79"/><path class="cls-13" d="M54,33.11h-.06V33H54Zm0-.18h-.06V32.8H54Zm0-.19h-.06v-.12H54Zm0-.18h-.06v-.12H54Zm0-.18h-.06v-.12H54Zm0-.18h-.06v-.12H54ZM54,32h-.06v-.12H54Zm0-.18h-.06v-.12H54Zm0-.18h-.06v-.12H54Zm0-.18h-.06v-.12H54Zm0-.18h-.06v-.12H54Zm0-.19h-.06V31H54Zm0-.18h-.06V30.8H54Zm0-.18h-.06v-.12H54Zm0-.18h-.06v-.12H54Zm0-.18h-.06v-.13H54Zm0-.19h-.06v-.12H54ZM54,30h-.06v-.12H54Zm0-.18h-.06v-.12H54Zm0-.18h-.06v-.12H54Z"/><path class="cls-13" d="M46.15,39.43H46v-.06h.12Zm-.18,0h-.12v-.06H46Zm-.18,0h-.12v-.06h.12Zm-.19,0h-.12v-.06h.12Zm-.18,0H45.3v-.06h.12Zm-.18,0h-.12v-.06h.12Zm-.18,0h-.12v-.06h.12Zm-.18,0h-.13v-.06h.13Zm-.19,0h-.12v-.06h.12Zm-.18,0h-.12v-.06h.12Zm-.18,0h-.12v-.06h.12Zm-.18,0H44v-.06h.12Zm-.18,0h-.13v-.06H44Zm-.19,0h-.12v-.06h.12Zm-.18,0h-.12v-.06h.12Zm-.18,0H43.3v-.06h.12Zm-.18,0h-.12v-.06h.12Zm-.19,0h-.12v-.06h.12Zm-.18,0h-.12v-.06h.12Zm-.18,0h-.12v-.06h.12Z"/><path class="cls-9" d="M35.93,40a.42.42,0,1,1,.41-.42A.42.42,0,0,1,35.93,40Zm0-.74a.32.32,0,0,0-.33.32.33.33,0,0,0,.33.33.32.32,0,0,0,.32-.33A.32.32,0,0,0,35.93,39.25Z"/><path class="cls-9" d="M27.34,37.62a.83.83,0,0,1-.83-.83.83.83,0,1,1,1.66,0A.83.83,0,0,1,27.34,37.62Zm0-1.58a.75.75,0,1,0,.75.75A.75.75,0,0,0,27.34,36Z"/><path class="cls-9" d="M53.72,39.72h-1.4V38h1.4Zm-1.31-.09h1.23V38H52.41Z"/><path class="cls-13" d="M49.69,39.5l0,0h0l.05,0Zm.05-.06-.05,0,.07-.1.05,0Zm.1-.15,0,0,.07-.09.05,0Zm.11-.15,0,0L50,39l.05,0Zm.11-.14,0,0,.07-.09,0,0Zm.11-.15-.05,0,.08-.1,0,0Zm.11-.14-.05,0,.08-.1,0,0Zm.11-.15,0,0,.08-.1,0,0Zm.11-.14,0,0,.08-.1,0,0Zm.11-.15,0,0,.08-.09,0,0Zm.11-.14,0,0,.07-.1,0,0Zm.11-.15,0,0,.07-.09,0,0Zm.11-.15,0,0,.07-.1,0,0Zm.11-.14,0,0,.07-.09,0,0Zm.11-.15,0,0,.07-.1,0,0Zm.11-.14-.05,0,.07-.1.05,0Z"/><path class="cls-13" d="M51.25,37.77l-.09-.07,0-.05.09.08Zm-.14-.11L51,37.58l0,0,.09.08ZM51,37.54l-.1-.08,0-.05.09.08Zm-.14-.12-.1-.08,0,0,.1.07Zm-.14-.12-.09-.08,0,0,.1.08Zm-.14-.11-.09-.08,0,0,.09.08Zm-.14-.12L50.33,37l0-.05.09.08ZM50.28,37l-.09-.08,0,0,.09.07Zm-.14-.12-.09-.08,0,0,.09.08ZM50,36.71l-.09-.07,0,0,.09.08Zm-.14-.11-.09-.08,0-.05.09.08Zm-.13-.12-.1-.08,0,0,.09.08Zm-.14-.12-.1-.08,0,0,.1.07Zm-.14-.12-.1-.08,0,0,.1.08Zm-.14-.11-.09-.08,0,0,.09.08ZM49.17,36l0,0,0,0h0Z"/><rect class="cls-13" x="51.79" y="36.91" width="0.06" height="2.75" transform="translate(-9.75 57.27) rotate(-53.59)"/><rect class="cls-13" x="50.19" y="36.77" width="0.06" height="1.96" transform="translate(-4.75 68.18) rotate(-65.89)"/><rect class="cls-13" x="50.3" y="37.14" width="1.98" height="0.06" transform="translate(-8.88 56.97) rotate(-54.15)"/><path class="cls-9" d="M38.92,25.36H37.05V23.42h1.87Zm-1.78-.09h1.69V23.5H37.14Z"/><path class="cls-9" d="M42,39.48H41v-.91h1Zm-.9-.08h.81v-.74h-.81Z"/><path class="cls-9" d="M28.51,38.78H27.3v-2h1.21Zm-1.13-.09h1v-1.8h-1Z"/><path class="cls-9" d="M29.23,31.63a1.11,1.11,0,1,1,1.11-1.1A1.11,1.11,0,0,1,29.23,31.63Zm0-2.09a1,1,0,1,0,1,1A1,1,0,0,0,29.23,29.54Z"/><path class="cls-9" d="M50.57,31.32a1.82,1.82,0,0,1-1.77-1.41A1.77,1.77,0,0,1,49,28.53a1.79,1.79,0,0,1,1.13-.82,1.85,1.85,0,0,1,1.38.22,1.81,1.81,0,0,1,.82,1.13h0a1.79,1.79,0,0,1-.22,1.39,1.85,1.85,0,0,1-1.13.82A2.1,2.1,0,0,1,50.57,31.32Zm0-3.54a1.75,1.75,0,0,0-.4,0,1.67,1.67,0,0,0-1.06.77A1.71,1.71,0,0,0,51,31.15,1.73,1.73,0,0,0,52,30.38a1.67,1.67,0,0,0,.2-1.29h0A1.68,1.68,0,0,0,51.47,28,1.76,1.76,0,0,0,50.58,27.78Z"/><path class="cls-9" d="M49.24,29.39A1.09,1.09,0,0,1,49,27.24a1.09,1.09,0,0,1,.83.13,1.08,1.08,0,0,1,.49.67h0a1.09,1.09,0,0,1-.13.83,1.12,1.12,0,0,1-.68.49A1.07,1.07,0,0,1,49.24,29.39Zm0-2.06-.23,0a1,1,0,0,0,.23,1.92.83.83,0,0,0,.22,0,1,1,0,0,0,.6-.43,1,1,0,0,0,.12-.74h0a1,1,0,0,0-.44-.6A1,1,0,0,0,49.24,27.33Z"/><path class="cls-13" d="M32.26,34.46H32.2v-.08h.06Zm0-.15H32.2v-.07h.06Zm0-.14H32.2v-.08h.06Zm0-.15H32.2V34h.06Zm0-.15H32.2V33.8h.06Zm0-.14H32.2v-.07h.06Zm0-.15H32.2v-.07h.06Zm0-.14H32.2v-.08h.06Zm0-.15H32.2v-.07h.06Zm0-.14H32.2v-.08h.06Zm0-.15H32.2v-.07h.06Zm0-.15H32.2v-.07h.06Zm0-.14H32.2v-.07h.06Zm0-.15H32.2v-.07h.06Zm0-.14H32.2v-.08h.06Zm0-.15H32.2V32.2h.06Zm0-.14H32.2v-.08h.06Zm0-.15H32.2v-.07h.06Zm0-.15H32.2v0h0v0h.06Zm-.13,0h-.07v-.06h.07Zm-.14,0h-.08v-.06H32Zm-.15,0h-.07v-.06h.07Zm-.15,0h-.07v-.06h.07Zm-.14,0h-.07v-.06h.07Zm-.15,0h-.07v-.06h.07Zm-.14,0h-.08v-.06h.08Zm-.15,0H31v-.06h.07Zm-.14,0h-.08v-.06H31Z"/><path class="cls-13" d="M31.33,38.75h-.09v-.06h.09Zm-.16,0H31.1v-.06h.07Zm-.14,0H31v-.06H31Zm-.15,0h-.07v-.06h.07Zm-.15,0h-.07v-.06h.07Zm-.14,0h-.07v-.06h.07Zm-.15,0h-.07v-.06h.07Zm-.14,0h-.08v-.06h.08Zm-.15,0h-.07v-.06h.07Zm-.14,0h-.08v-.06H30Zm-.15,0h-.07v-.06h.07Zm-.15,0h-.07v-.06h.07Zm-.14,0H29.5v-.06h.07Zm-.15,0h-.07v-.06h.07Zm-.14,0H29.2v-.06h.08Zm-.15,0h-.07v-.06h.07Zm-.14,0h-.08v-.06H29Zm-.15,0h-.07v-.06h.07Zm-.15,0h-.07v-.06h.07Zm2.64-.12h-.06v-.08h.06Zm0-.15h-.06v-.07h.06Zm0-.15h-.06v-.07h.06Zm0-.14h-.06v-.07h.06Zm0-.15h-.06V38h.06Zm0-.14h-.06v-.08h.06Zm0-.15h-.06v-.07h.06Zm0-.14h-.06v-.08h.06Zm0-.15h-.06v-.07h.06Z"/><path class="cls-13" d="M38.91,38.55H37.15a.58.58,0,0,1-.56-.58.58.58,0,0,1,.53-.58.4.4,0,0,1,.38-.29.32.32,0,0,1,.19,0A.8.8,0,0,1,38.83,37a.75.75,0,0,1,.28.42.58.58,0,0,1,.28.21.61.61,0,0,1,.11.35A.6.6,0,0,1,38.91,38.55Zm-.1-.07h.1a.53.53,0,0,0,.53-.53.55.55,0,0,0-.1-.31.56.56,0,0,0-.26-.2h0v0a.74.74,0,0,0-.27-.4.69.69,0,0,0-.45-.16.75.75,0,0,0-.62.32v0l0,0a.35.35,0,0,0-.18-.05.32.32,0,0,0-.32.27v0h0a.57.57,0,0,0-.36.16.54.54,0,0,0-.14.36.52.52,0,0,0,.5.52h1.66Z"/><rect class="cls-13" x="44.54" y="24.91" width="0.06" height="0.41" transform="translate(-4.4 39.92) rotate(-46.22)"/><path class="cls-13" d="M45.61,24.94h-.06l0-.09h.06Zm0-.15h-.06l0-.12.06,0Zm0-.17-.06,0,0-.12.06,0Zm0-.18h-.06l0-.12h0Zm0-.18h-.06l0-.12h.06Zm0-.18h-.06l0-.12h.06Z"/><rect class="cls-13" x="45.8" y="24.77" width="0.93" height="0.06" transform="translate(-3.87 40.37) rotate(-45.44)"/><rect class="cls-13" x="46.43" y="25.89" width="0.06" height="1.03" transform="translate(0.65 53.92) rotate(-60.6)"/><rect class="cls-13" x="43.74" y="26.42" width="1.07" height="0.06" transform="translate(-7.18 29.94) rotate(-34.73)"/><rect class="cls-1" x="44.53" y="24.93" width="0.86" height="1.72"/><rect class="cls-14" x="35.37" y="38.06" width="0.03" height="0.04" transform="translate(-14.78 24.46) rotate(-31.91)"/><path class="cls-14" d="M35.33,38l0-.06,0,0,0,.07Zm-.08-.12,0-.06,0,0,0,.06Zm-.08-.12,0-.07h0l0,.06Zm-.08-.13,0-.06,0,0,0,.07ZM35,37.52l0-.06,0,0,0,.06Zm-.08-.13,0-.06h0l0,.06Z"/><rect class="cls-14" x="34.85" y="37.23" width="0.03" height="0.04" transform="matrix(0.85, -0.53, 0.53, 0.85, -14.42, 24.06)"/><rect class="cls-14" x="34.1" y="38.4" width="0.04" height="0.03" transform="translate(-16.52 47.07) rotate(-58.08)"/><path class="cls-14" d="M34.18,38.34h0l0-.06h0Zm.07-.12h0l0-.06,0,0Zm.08-.11,0,0,0-.06,0,0ZM34.4,38l0,0,0-.06,0,0Zm.08-.12,0,0,0-.06,0,0Zm.07-.12,0,0,0-.06,0,0Zm.08-.12,0,0,0-.06,0,0Zm.07-.12,0,0,0-.06,0,0Zm.08-.12,0,0,0-.06,0,0Z"/><rect class="cls-14" x="34.83" y="37.23" width="0.04" height="0.03" transform="matrix(0.53, -0.85, 0.85, 0.53, -15.19, 47.13)"/><rect class="cls-14" x="35.39" y="38.08" width="0.04" height="0.03" transform="translate(-15.65 48.01) rotate(-58.08)"/><path class="cls-14" d="M35.47,38l0,0,0-.06,0,0Zm.07-.12,0,0,0-.06,0,0Zm.07-.12,0,0,0-.06,0,0Zm.08-.12,0,0,0-.06,0,0Zm.07-.12,0,0,0-.06,0,0Zm.08-.12,0,0,0-.06,0,0Zm.07-.12,0,0,0-.06,0,0Zm.08-.12,0,0,0-.06,0,0Zm.07-.12,0,0,0-.06,0,0Z"/><rect class="cls-14" x="36.11" y="36.91" width="0.04" height="0.03" transform="translate(-14.32 48.07) rotate(-58.08)"/><polygon class="cls-13" points="30.78 29.23 30.18 29.23 29.78 28.83 29.21 28.83 28.72 28.33 28.04 28.33 27.55 28.83 26.34 28.83 26.34 28.77 27.52 28.77 28.02 28.27 28.74 28.27 29.23 28.77 29.8 28.77 30.21 29.17 30.75 29.17 31.16 28.77 32.01 28.77 32.01 28.83 31.18 28.83 30.78 29.23"/><path class="cls-13" d="M27.52,28.93a.14.14,0,0,1-.14-.14.14.14,0,0,1,.28,0A.14.14,0,0,1,27.52,28.93Zm0-.24a.1.1,0,0,0-.1.1.1.1,0,1,0,.2,0A.1.1,0,0,0,27.52,28.69Z"/><path class="cls-13" d="M29.22,28.94a.14.14,0,0,1-.14-.14.14.14,0,1,1,.28,0A.14.14,0,0,1,29.22,28.94Zm0-.25a.1.1,0,0,0-.1.11.1.1,0,0,0,.2,0A.1.1,0,0,0,29.22,28.69Z"/><polygon class="cls-13" points="34.51 28.28 33.78 28.28 33.29 27.79 32.72 27.79 32.32 27.39 31.77 27.39 31.37 27.79 30.51 27.79 30.51 27.73 31.34 27.73 31.75 27.32 32.34 27.32 32.75 27.73 33.32 27.73 33.81 28.22 34.48 28.22 34.98 27.73 35.93 27.73 35.93 27.79 35 27.79 34.51 28.28"/><path class="cls-13" d="M35,27.9a.14.14,0,0,1-.14-.14.15.15,0,0,1,.14-.14.14.14,0,0,1,.14.14A.14.14,0,0,1,35,27.9Zm0-.24a.11.11,0,0,0-.1.1.11.11,0,0,0,.1.11.11.11,0,0,0,.11-.11A.11.11,0,0,0,35,27.66Z"/><path class="cls-13" d="M33.3,27.9a.14.14,0,1,1,0-.28.14.14,0,1,1,0,.28Zm0-.24a.1.1,0,0,0,0,.2.1.1,0,1,0,0-.2Z"/><polygon class="cls-13" points="26.92 28.77 26.87 28.73 27.99 27.64 29.36 27.64 29.81 28.16 32.36 28.16 32.99 28.57 32.96 28.62 32.34 28.22 29.78 28.22 29.33 27.7 28.02 27.7 26.92 28.77"/><rect class="cls-13" x="27.13" y="27.56" width="0.06" height="0.76" transform="translate(-11.8 27.39) rotate(-45)"/><path class="cls-15" d="M27.29,33.51a.57.57,0,0,1-.4-.16.58.58,0,0,1,0-.81l0,0h0l.65-.66a.26.26,0,0,1,.09-.05.57.57,0,0,1,.78.78l-.06.08-.65.65,0,0,0,0A.55.55,0,0,1,27.29,33.51ZM27.94,32a.37.37,0,0,0-.17,0h0l-.65.65h0a.32.32,0,0,0,0,.46.3.3,0,0,0,.23.1.29.29,0,0,0,.23-.1h0l.66-.65h0a.32.32,0,0,0,0-.4A.33.33,0,0,0,27.94,32Z"/><path class="cls-15" d="M27.1,34.34a.56.56,0,0,1-.4-.17.55.55,0,0,1,0-.8l0,0v0l.65-.65.08-.06a.57.57,0,0,1,.69.1.55.55,0,0,1,.09.68.26.26,0,0,1,0,.09l-.66.65h0l0,0A.56.56,0,0,1,27.1,34.34Zm.65-1.55a.34.34,0,0,0-.17.05h0l-.65.66h0v0a.32.32,0,0,0,0,.46.31.31,0,0,0,.46,0h0l.66-.65h0a.32.32,0,0,0-.05-.4A.29.29,0,0,0,27.75,32.79Z"/><rect class="cls-10" x="31.97" y="25.87" width="0.43" height="0.06"/><rect class="cls-10" x="31.27" y="23.34" width="0.06" height="0.59" transform="translate(-3.82 6.18) rotate(-10.63)"/><rect class="cls-10" x="31.6" y="23.8" width="0.59" height="0.06" transform="matrix(0.85, -0.52, 0.52, 0.85, -7.74, 20.08)"/><path class="cls-13" d="M31.48,25.61l-.09,0,0-.05.09,0Zm-.14-.07-.11-.05,0,0,.1,0Zm-.17-.08-.1-.05,0-.05.11.05ZM31,25.38l-.11-.05,0,0,.11,0Zm-.16-.08-.11-.05,0-.05.1.05Z"/><path class="cls-13" d="M30.86,24.73l0-.05.1-.07,0,0Zm.14-.11,0-.05.1-.08,0,.05Zm.15-.12,0,0,.09-.08,0,.05Z"/><path class="cls-13" d="M28.63,25h-.06v-.12h.06Zm0-.18h-.06v-.12h.06Zm0-.18h-.06v-.13h.06Zm0-.19h-.06v-.12h.06Zm-.06-.18v-.12h.06v.12Zm.06-.18h-.06V24h.06Zm0-.18h-.06V23.8h.06Zm0-.18h-.06v-.13h.06Zm0-.19h-.06v-.12h.06Zm0-.18h-.06v-.05h.06Z"/><path class="cls-13" d="M27.43,26.42l0-.05.09-.08,0,0Zm.13-.13,0-.05.09-.08,0,0Zm.13-.13,0-.05.09-.08,0,0Zm.13-.13,0,0,.08-.09.05,0ZM28,25.9l0,0,.08-.09.05,0Zm.13-.13,0,0,.08-.09,0,.05Zm.13-.13-.05,0,.09-.09,0,0Zm.13-.13-.05,0,.09-.08,0,0Zm.13-.12,0-.05.09-.08,0,0Zm.12-.13,0-.05,0,0,0,0Z"/><path class="cls-13" d="M50.25,26.67l-.06,0,0-.11.06,0Zm.06-.17-.06,0,0-.11.05,0Zm.07-.17-.06,0,0-.11.06,0Zm.06-.17-.06,0,0-.11,0,0Zm.07-.17-.06,0,0-.11.06,0Zm.06-.17-.06,0,.05-.11,0,0Zm.07-.17-.06,0,0-.11.06,0Zm1.11-.07-.12,0,0-.06.11,0Zm-.18,0-.12,0,0-.06.12,0Zm.24,0-.06,0,0-.11.05,0Zm-.41,0-.12,0v-.06l.12,0Zm-.7,0-.06,0,0-.11.06,0Zm.52,0-.12,0v-.06l.12,0Zm-.18,0-.12,0,0-.06.11,0Zm-.18,0-.12,0,0-.06.12,0Zm1,0-.06,0,0-.11.06,0Zm.06-.17-.06,0,0-.11,0,0ZM52,25,52,25l0-.11.06,0Zm.06-.17,0,0,0-.11.06,0Zm.07-.17-.06,0,0-.11.06,0Zm1-.08-.1-.07,0-.05.1.07Zm.09,0-.06,0,.06-.11.06,0Zm-1-.08-.05,0,0-.11.06,0Zm.75,0-.1-.07,0-.05.1.07Zm.33-.07-.06,0,.07-.11.05,0Zm-.48,0-.11-.07,0,0,.1.07Zm-.53-.06-.06,0,0-.11.06,0Zm.37,0-.1-.07,0-.05.1.07Zm.73,0,0,0,.06-.1,0,0Zm-.88-.07-.1-.07,0-.05.1.07Zm-.16,0,0,0,0-.1h.06v0h0Zm1.13-.06-.05,0,.06-.1.05,0Zm.09-.15,0,0,.06-.11,0,0Z"/><path class="cls-16" d="M40.12,37.45h-.36a5.46,5.46,0,0,1-1.27-.23l0-.08a5.74,5.74,0,0,0,1.25.22A6,6,0,0,0,41,37.28a5.42,5.42,0,0,0,1.25-.36,5.34,5.34,0,0,0,1.16-.66,5.58,5.58,0,0,0,1.49-1.65,5.67,5.67,0,0,0,.72-2,5.55,5.55,0,0,0-.09-2.15,5.66,5.66,0,0,0-.94-2l.07-.05a5.52,5.52,0,0,1,1,2.05,5.71,5.71,0,0,1,.09,2.18A5.58,5.58,0,0,1,45,34.65a5.67,5.67,0,0,1-1.52,1.68,5.75,5.75,0,0,1-1.18.68,5.5,5.5,0,0,1-1.26.36A6,6,0,0,1,40.12,37.45Z"/><polygon class="cls-17" points="44.63 28.79 44.53 28.23 45.04 28.48 44.63 28.79"/><rect class="cls-9" x="25.95" y="24.39" width="1.57" height="2.5"/><rect class="cls-18" x="43.44" y="36.28" width="1.32" height="1.15"/><rect class="cls-9" x="39.34" y="24" width="1.69" height="1.1"/><polygon class="cls-5" points="40.19 24.66 39.34 24.14 39.34 24.11 40.19 24.63 41.03 24.11 41.03 24.14 40.19 24.66"/><polygon class="cls-5" points="39.34 25.09 39.34 25.07 39.93 24.48 39.96 24.51 39.36 25.09 39.34 25.09"/><polygon class="cls-5" points="41.03 25.09 41.02 25.09 40.42 24.51 40.44 24.48 41.03 25.07 41.03 25.09"/><rect class="cls-18" x="44.03" y="37.05" width="3.02" height="0.97"/><path class="cls-5" d="M47.09,38.06H44V37h3.11Zm-3-.08H47v-.89H44.07Z"/><path class="cls-16" d="M54,28.76a.56.56,0,1,0,.56.56A.56.56,0,0,0,54,28.76Z"/><g class="cls-19"><g class="cls-20"><path class="cls-16" d="M54,29.88a.56.56,0,0,1,0-1.12Z"/></g></g><path class="cls-13" d="M49,30.65H47.38l-.8-1.38.8-1.38H49l.79,1.37Zm-1.57,0H49l.78-1.34L49,27.93H47.4l-.77,1.34Z"/><path class="cls-9" d="M48.13,30.47h0v-.66a1.63,1.63,0,0,0-.48.09A1.47,1.47,0,0,0,48.13,30.47Z"/><path class="cls-9" d="M47.59,29.93a1.52,1.52,0,0,0-.3.17,1.23,1.23,0,0,0,.72.37A1.68,1.68,0,0,1,47.59,29.93Z"/><path class="cls-9" d="M47.63,29.85a1.24,1.24,0,0,1,.5-.1v-.4h-.62A1.46,1.46,0,0,0,47.63,29.85Z"/><path class="cls-9" d="M47.51,29.27h.62v-.4a1.62,1.62,0,0,1-.53-.11A1.39,1.39,0,0,0,47.51,29.27Z"/><path class="cls-9" d="M48,28.08a1.22,1.22,0,0,0-.76.41,1.73,1.73,0,0,0,.31.19A1.56,1.56,0,0,1,48,28.08Z"/><path class="cls-9" d="M47.62,28.71a1.87,1.87,0,0,0,.51.11v-.75h0A1.5,1.5,0,0,0,47.62,28.71Z"/><path class="cls-9" d="M47.45,29.27a1.6,1.6,0,0,1,.09-.53,1.94,1.94,0,0,1-.33-.2,1.24,1.24,0,0,0-.25.73h.49Z"/><path class="cls-9" d="M47.45,29.35H47a1.23,1.23,0,0,0,.29.7,2,2,0,0,1,.32-.18A1.52,1.52,0,0,1,47.45,29.35Z"/><path class="cls-9" d="M48.2,28.07v.75a1.44,1.44,0,0,0,.5-.1A1.5,1.5,0,0,0,48.2,28.07Z"/><path class="cls-9" d="M48.31,30.47a1.22,1.22,0,0,0,.74-.39,1.23,1.23,0,0,0-.32-.17A1.62,1.62,0,0,1,48.31,30.47Z"/><path class="cls-9" d="M48.87,29.27h.5a1.17,1.17,0,0,0-.24-.71,1.51,1.51,0,0,1-.35.2A1.44,1.44,0,0,1,48.87,29.27Z"/><path class="cls-9" d="M48.76,29.85a1.35,1.35,0,0,1,.33.19,1.22,1.22,0,0,0,.28-.7h-.5A1.72,1.72,0,0,1,48.76,29.85Z"/><path class="cls-9" d="M48.31,28.08a1.53,1.53,0,0,1,.45.62,1.35,1.35,0,0,0,.33-.19A1.14,1.14,0,0,0,48.31,28.08Z"/><path class="cls-9" d="M48.81,29.27a1.37,1.37,0,0,0-.09-.49,1.34,1.34,0,0,1-.52.1v.4h.61Z"/><path class="cls-9" d="M48.67,29.89a1.5,1.5,0,0,0-.47-.08v.66A1.39,1.39,0,0,0,48.67,29.89Z"/><path class="cls-9" d="M48.8,29.34h-.6v.39a1.7,1.7,0,0,1,.5.09A1.34,1.34,0,0,0,48.8,29.34Z"/><path class="cls-5" d="M48.21,28H48.1a1.26,1.26,0,0,0-1.2,1.26,1.27,1.27,0,0,0,1.2,1.27h.11a1.28,1.28,0,0,0,1.22-1.27A1.26,1.26,0,0,0,48.21,28Zm-.2.07a1.56,1.56,0,0,0-.45.6,1.73,1.73,0,0,1-.31-.19A1.22,1.22,0,0,1,48,28.08Zm-1,1.19a1.24,1.24,0,0,1,.25-.73,1.94,1.94,0,0,0,.33.2,1.6,1.6,0,0,0-.09.53H47Zm.29.78a1.23,1.23,0,0,1-.29-.7h.49a1.52,1.52,0,0,0,.12.52A2,2,0,0,0,47.25,30.05Zm0,.05a1.52,1.52,0,0,1,.3-.17,1.68,1.68,0,0,0,.42.54A1.23,1.23,0,0,1,47.29,30.1Zm.84.37h0a1.47,1.47,0,0,1-.48-.57,1.63,1.63,0,0,1,.48-.09Zm0-.72a1.24,1.24,0,0,0-.5.1,1.46,1.46,0,0,1-.12-.5h.62Zm0-.47h-.62a1.39,1.39,0,0,1,.09-.5,1.62,1.62,0,0,0,.53.11Zm0-.46a1.87,1.87,0,0,1-.51-.11,1.5,1.5,0,0,1,.51-.64h0Zm.07-.75a1.5,1.5,0,0,1,.5.65,1.44,1.44,0,0,1-.5.1Zm0,.81a1.34,1.34,0,0,0,.52-.1,1.37,1.37,0,0,1,.09.49H48.2Zm0,.47h.6a1.34,1.34,0,0,1-.1.49,1.7,1.7,0,0,0-.5-.09Zm0,1.12v-.66a1.5,1.5,0,0,1,.47.08A1.39,1.39,0,0,1,48.2,30.47Zm.11,0a1.62,1.62,0,0,0,.42-.56,1.23,1.23,0,0,1,.32.17A1.22,1.22,0,0,1,48.31,30.47Zm.78-.43a1.35,1.35,0,0,0-.33-.19,1.72,1.72,0,0,0,.11-.51h.5A1.22,1.22,0,0,1,49.09,30Zm.28-.77h-.5a1.44,1.44,0,0,0-.09-.51,1.51,1.51,0,0,0,.35-.2A1.17,1.17,0,0,1,49.37,29.27Zm-.61-.57a1.53,1.53,0,0,0-.45-.62,1.14,1.14,0,0,1,.78.43A1.35,1.35,0,0,1,48.76,28.7Z"/><circle class="cls-17" cx="46.6" cy="29.27" r="0.24"/><g class="cls-19"><g class="cls-21"><path class="cls-17" d="M46.6,29.51a.24.24,0,0,1,0-.48Z"/></g></g><path class="cls-16" d="M49.75,29a.27.27,0,1,0,.27.27A.27.27,0,0,0,49.75,29Z"/><g class="cls-19"><g class="cls-22"><path class="cls-16" d="M49.75,29.54a.27.27,0,1,1,0-.54Z"/></g></g><circle class="cls-16" cx="47.42" cy="30.63" r="0.27"/><circle class="cls-10" cx="47.4" cy="27.9" r="0.3"/><g class="cls-19"><g class="cls-23"><path class="cls-10" d="M47.4,28.2a.3.3,0,0,1-.3-.3.31.31,0,0,1,.3-.3Z"/></g></g><path class="cls-16" d="M48.94,27.73a.18.18,0,0,0,0,.36.18.18,0,1,0,0-.36Z"/><g class="cls-19"><g class="cls-24"><path class="cls-16" d="M48.94,28.09a.18.18,0,0,1,0-.36Z"/></g></g><path class="cls-17" d="M48.94,30.23a.41.41,0,0,0,0,.81.41.41,0,1,0,0-.81Zm0,.61a.2.2,0,0,1-.2-.21.2.2,0,0,1,.2-.2.2.2,0,0,1,.21.2A.21.21,0,0,1,48.94,30.84Z"/><g class="cls-19"><g class="cls-25"><path class="cls-17" d="M48.94,30.91a.28.28,0,0,1-.27-.28.27.27,0,0,1,.27-.27v-.13a.41.41,0,0,0,0,.81Z"/></g></g><g class="cls-19"><g class="cls-26"><path class="cls-16" d="M47.42,30.9a.27.27,0,1,1,0-.53Z"/></g></g><polygon class="cls-27" points="38.31 39.12 38.31 38.13 37.76 38.13 37.76 39.12 37.5 39.12 38.03 39.65 38.57 39.12 38.31 39.12"/><rect class="cls-11" x="28.78" y="33.8" width="5.2" height="3.41"/><rect class="cls-5" x="29.23" y="34.26" width="4.3" height="2.48"/><rect class="cls-16" x="29.65" y="34.79" width="1.73" height="0.96"/><rect class="cls-28" x="32.1" y="34.46" width="1.09" height="0.61"/><rect class="cls-13" x="30.6" y="37.21" width="1.55" height="0.44"/><rect class="cls-11" x="30.15" y="37.65" width="2.46" height="0.24"/><path class="cls-12" d="M33.72,36.94H29V34.06h4.68Zm-4.65,0h4.62V34.09H29.07Z"/><rect class="cls-10" x="30.23" y="35.27" width="2.21" height="1.23"/><path class="cls-17" d="M45.39,24.93a.87.87,0,1,0,.86.87A.87.87,0,0,0,45.39,24.93Zm0,1.44A.58.58,0,1,1,46,25.8.58.58,0,0,1,45.39,26.37Z"/><g class="cls-19"><path class="cls-17" d="M45.39,26.37a.58.58,0,1,1,0-1.15v-.29a.87.87,0,0,0,0,1.73Z"/></g><path class="cls-16" d="M44.19,24.36a.36.36,0,1,0,.35.35A.35.35,0,0,0,44.19,24.36Zm0,.53a.18.18,0,0,1-.18-.18.18.18,0,0,1,.36,0A.18.18,0,0,1,44.19,24.89Z"/><g class="cls-19"><g class="cls-29"><path class="cls-16" d="M44.19,25a.23.23,0,0,1-.23-.24.23.23,0,0,1,.23-.23v-.12a.36.36,0,0,0,0,.71Z"/></g></g><path class="cls-10" d="M52.12,35.82a.41.41,0,1,0,.41.41A.4.4,0,0,0,52.12,35.82Zm0,.61a.2.2,0,0,1-.2-.2.2.2,0,0,1,.2-.21.21.21,0,0,1,.21.21A.2.2,0,0,1,52.12,36.43Z"/><g class="cls-19"><g class="cls-30"><path class="cls-16" d="M52.12,36.5a.28.28,0,0,1,0-.55v-.13a.41.41,0,0,0,0,.81Z"/></g></g><path class="cls-10" d="M45.78,23.51a.39.39,0,0,0-.39.39.39.39,0,0,0,.77,0A.39.39,0,0,0,45.78,23.51Z"/><circle class="cls-11" cx="43.84" cy="26.76" r="0.39"/><path class="cls-11" d="M46.59,24.25a.22.22,0,0,0,0,.44.22.22,0,1,0,0-.44Z"/><path class="cls-11" d="M46.91,26.44a.22.22,0,0,0,0,.44.22.22,0,1,0,0-.44Z"/><path class="cls-11" d="M49.58,39.33a.25.25,0,1,0,.25.25A.25.25,0,0,0,49.58,39.33Z"/><circle class="cls-10" cx="34.92" cy="26.01" r="0.88"/><rect class="cls-5" x="34.78" y="25.82" width="0.28" height="0.79"/><path class="cls-5" d="M35.08,25.54a.16.16,0,0,1-.16.15.16.16,0,1,1,0-.31A.16.16,0,0,1,35.08,25.54Z"/><path class="cls-16" d="M34.36,38.43a.25.25,0,0,1-.5,0,.25.25,0,1,1,.5,0Z"/><path class="cls-31" d="M35.11,37.23a.25.25,0,0,1-.25.25.25.25,0,1,1,0-.5A.25.25,0,0,1,35.11,37.23Z"/><circle class="cls-16" cx="35.4" cy="38.08" r="0.25"/><path class="cls-16" d="M49.49,37.24a.19.19,0,1,1-.26-.09A.19.19,0,0,1,49.49,37.24Z"/><path class="cls-10" d="M53.13,39.1a.2.2,0,0,1-.2.2.19.19,0,0,1-.19-.2.18.18,0,0,1,.19-.19A.19.19,0,0,1,53.13,39.1Z"/><path class="cls-31" d="M36.39,36.91a.25.25,0,1,1-.25-.25A.25.25,0,0,1,36.39,36.91Z"/><rect class="cls-17" x="47.3" y="38.12" width="0.19" height="0.25" transform="translate(-13.16 44.72) rotate(-45)"/><path class="cls-27" d="M47.37,37.37a.6.6,0,0,0-.85.85.6.6,0,1,0,.85-.85Zm-.13.72a.42.42,0,0,1-.6,0,.42.42,0,0,1,.6-.6A.42.42,0,0,1,47.24,38.09Z"/><rect class="cls-27" x="47.38" y="38.31" width="0.31" height="0.14" transform="translate(-13.22 44.85) rotate(-45)"/><rect class="cls-10" x="47.72" y="38.33" width="0.23" height="0.73" transform="translate(-13.35 45.16) rotate(-45)"/><path class="cls-5" d="M46.94,38.34a.55.55,0,0,1-.38-.93.51.51,0,0,1,.38-.16.53.53,0,0,1,.39.16h0a.55.55,0,0,1,.16.38.55.55,0,0,1-.55.55Zm0-1.06a.51.51,0,0,0,0,1,.51.51,0,0,0,.52-.51.53.53,0,0,0-.15-.36h0A.51.51,0,0,0,46.94,37.28Z"/><path class="cls-27" d="M41.89,37.4h0v-.09h0l0,0v0a.05.05,0,0,1,0,0l0,0-.06-.07,0,0h-.07a.07.07,0,0,1,0,0V37h-.09v.06a.07.07,0,0,1,0,0h-.06l0,0-.06.07,0,0a.18.18,0,0,1,0,0h0s0,0,0,0h0v.1h0s0,0,0,0h0v0l0,0,.06.07,0,0h.07l0,0v.05h.09v-.05a.1.1,0,0,1,.06,0h.05l0,0,.06-.07,0,0a.09.09,0,0,1,0-.06h0A.12.12,0,0,1,41.89,37.4Zm-.27.1a.15.15,0,0,1-.14-.15.14.14,0,0,1,.14-.14.15.15,0,0,1,.15.14A.15.15,0,0,1,41.62,37.5Z"/><path class="cls-32" d="M42.7,37.89l.07,0,0-.12-.06,0a.08.08,0,0,1,0-.07v0a.14.14,0,0,1,0-.07l.07,0,0-.12-.08,0s0,0-.06,0h0a.12.12,0,0,1,0-.08l0-.07-.12-.05,0,.07a.12.12,0,0,1-.08,0h0c-.06,0-.07,0-.07,0l0-.07-.12.05,0,.07a.13.13,0,0,1,0,.07h0s-.08,0-.08,0l-.07,0,0,.12.07,0a.12.12,0,0,1,0,.08h0a.14.14,0,0,1,0,.07l-.07,0,.05.12.07,0a.11.11,0,0,1,.07,0l0,0s0,.06,0,.06l0,.07.12.06,0-.07a.12.12,0,0,1,.1,0h0a.12.12,0,0,1,.08,0l0,.08.12,0,0-.07a.11.11,0,0,1,.05-.08h0S42.7,37.89,42.7,37.89Zm-.4,0a.21.21,0,0,1-.1-.28.2.2,0,0,1,.27-.1.2.2,0,0,1,.1.27A.21.21,0,0,1,42.3,37.86Z"/><path class="cls-27" d="M29.54,26.36h0V26.3h0l0,0v-.05l0,0-.05,0,0,0s0,0,0,0h0s0,0,0,0v0h-.06v0l0,0h0l0,0,0,0,0,0s0,0,0,0h0a.07.07,0,0,1,0,0h0v.06h0s0,0,0,0h0s0,0,0,0l0,0,0,0,0,0h0l0,0v0h.06v0s0,0,0,0h0l0,0,0,0,0,0v0h0Zm-.17.07a.1.1,0,0,1,0-.2.1.1,0,0,1,0,.2Z"/><path class="cls-32" d="M30.08,26.68l0,0,0-.08-.05,0a.06.06,0,0,1,0,0v0s0-.05,0-.05h0l0-.09,0,0-.05,0h0a.1.1,0,0,1,0-.05l0,0-.08,0,0,.05h-.06a.08.08,0,0,1-.05,0v-.05l-.09,0,0,0a.1.1,0,0,1,0,.05h0s-.05,0-.05,0l0,0,0,.08.05,0s0,0,0,.05h0a.08.08,0,0,1,0,.05h0l0,.08h0l.05,0h0a.1.1,0,0,1,0,.05l0,0,.08,0,0,0h.06a.08.08,0,0,1,.05,0l0,0,.08,0,0,0a.09.09,0,0,1,0-.06h0Zm-.27,0a.14.14,0,0,1-.06-.18.12.12,0,0,1,.18-.06.13.13,0,0,1-.12.24Z"/><path class="cls-27" d="M54.19,34.73v0h.06v0l0,0h0l0,0,0,0,0,0s0,0,0,0h0l0,0h0v-.06h0l0,0h0s0,0,0,0l0,0,0,0,0,0a0,0,0,0,1,0,0h0a0,0,0,0,1,0,0v0h-.07v0a0,0,0,0,1,0,0h0a0,0,0,0,1,0,0l0,0,0,0,0,0s0,0,0,0h0l0,0h0v.06h0s0,0,0,0h0s0,0,0,0l0,0,0,0,0,0h.05Zm-.06-.17a.1.1,0,0,1,.1-.1.1.1,0,0,1,.09.1.09.09,0,0,1-.09.09A.09.09,0,0,1,54.13,34.56Z"/><path class="cls-32" d="M53.87,35.27l0,0,.08,0,0-.05H54a0,0,0,0,1,0,0l0,0,.08,0,0,0s0,0,0-.05h0l0,0,.05,0,0-.08-.05,0s0,0,0,0h0l0-.05h.05l0-.09-.05,0,0,0h0a.1.1,0,0,1,0,0l0,0-.08,0,0,0H54s-.05,0-.05,0l0,0-.08,0,0,0s0,0,0,0h0l0,0-.05,0,0,.08,0,0s0,0,0,.06h0l0,0-.05,0,0,.08,0,0s0,0,.05,0h0A.1.1,0,0,1,53.87,35.27Zm0-.27a.14.14,0,0,1,.18-.06.14.14,0,0,1,.07.18.14.14,0,0,1-.18.06A.14.14,0,0,1,53.89,35Z"/><path class="cls-27" d="M42.61,25.68l0,0,.07.07,0,0a.07.07,0,0,1,0,0h0a.07.07,0,0,1,0,0v.06h.09v-.06a.07.07,0,0,1,0,0h0a.09.09,0,0,1,.06,0l0,0,.06-.07,0,0a.05.05,0,0,1,0-.05h0s0,0,0,0h0v-.1h0s0,0,0,0h0a.05.05,0,0,1,0-.05l0,0L43,25.27l0,0a.09.09,0,0,1-.06,0h0l0,0v-.06h-.09v.06a.07.07,0,0,1,0,0h0a.07.07,0,0,1,0,0l0,0-.07.07,0,0s0,0,0,.06h0s0,0,0,0h-.06v.1h.06a.11.11,0,0,1,0,.05h0A.07.07,0,0,1,42.61,25.68Zm.12-.25a.15.15,0,0,1,.21,0,.15.15,0,0,1,0,.2.14.14,0,0,1-.21,0A.13.13,0,0,1,42.73,25.43Z"/><path class="cls-32" d="M41.69,25.91l-.07,0,.05.12.07,0a.08.08,0,0,1,.06,0l0,0s0,.07,0,.07l0,.07.12.05,0-.07a.1.1,0,0,1,.07,0h0a.09.09,0,0,1,.08,0l0,.07.12-.05,0-.07a.11.11,0,0,1,0-.07h0l.07,0,.07,0,.06-.12-.07,0a.12.12,0,0,1,0-.08h0a.09.09,0,0,1,0-.08l.07,0-.05-.13-.07,0a.11.11,0,0,1-.07,0h0s0-.07,0-.07l0-.07-.12-.06,0,.07a.12.12,0,0,1-.08,0h0c-.05,0-.06,0-.06,0l0-.07-.12,0,0,.08s0,0,0,.08h0a.18.18,0,0,1-.08,0l-.07,0,0,.12.07,0s0,0,0,.09h0A.08.08,0,0,1,41.69,25.91Zm.31-.26a.2.2,0,0,1,.26.12.2.2,0,1,1-.26-.12Z"/><path class="cls-1" d="M32.35,28.08a.1.1,0,0,0-.11.1.11.11,0,0,0,.11.11.11.11,0,0,0,.1-.11A.1.1,0,0,0,32.35,28.08Z"/><path class="cls-1" d="M30.51,27.66a.1.1,0,0,0-.1.1.1.1,0,0,0,.1.11.11.11,0,0,0,.11-.11A.11.11,0,0,0,30.51,27.66Z"/><path class="cls-10" d="M28,28.18a.13.13,0,0,0-.12.12.13.13,0,0,0,.12.13.13.13,0,0,0,.13-.13A.13.13,0,0,0,28,28.18Z"/><path class="cls-11" d="M28.73,28.18a.13.13,0,0,0-.13.12.13.13,0,0,0,.13.13.13.13,0,0,0,.12-.13A.13.13,0,0,0,28.73,28.18Z"/><path class="cls-31" d="M29.8,28.68a.12.12,0,0,0-.12.12.12.12,0,0,0,.12.12.13.13,0,0,0,.12-.12A.12.12,0,0,0,29.8,28.68Z"/><path class="cls-11" d="M30.19,29.08a.12.12,0,1,0,.12.12A.12.12,0,0,0,30.19,29.08Z"/><path class="cls-11" d="M30.76,29.08a.12.12,0,1,0,0,.24.12.12,0,0,0,0-.24Z"/><path class="cls-11" d="M31.17,28.67a.12.12,0,0,0-.12.12.12.12,0,0,0,.12.13.13.13,0,0,0,.12-.13A.13.13,0,0,0,31.17,28.67Z"/><path class="cls-11" d="M26.39,28.67a.12.12,0,0,0-.12.12.12.12,0,1,0,.24,0A.12.12,0,0,0,26.39,28.67Z"/><path class="cls-10" d="M32,28.67a.13.13,0,0,0-.12.12.13.13,0,0,0,.12.13.13.13,0,0,0,.13-.13A.13.13,0,0,0,32,28.67Z"/><path class="cls-11" d="M34.5,28.13a.12.12,0,0,0-.12.12.12.12,0,1,0,.24,0A.12.12,0,0,0,34.5,28.13Z"/><path class="cls-31" d="M33.8,28.13a.12.12,0,0,0-.12.12.12.12,0,1,0,.24,0A.12.12,0,0,0,33.8,28.13Z"/><path class="cls-11" d="M32.73,27.64a.12.12,0,0,0,0,.24.12.12,0,1,0,0-.24Z"/><path class="cls-11" d="M32.34,27.48a.13.13,0,0,0,.12-.12.13.13,0,0,0-.12-.13.13.13,0,0,0-.13.13A.13.13,0,0,0,32.34,27.48Z"/><path class="cls-31" d="M31.77,27.23a.12.12,0,0,0-.12.13.12.12,0,1,0,.24,0A.12.12,0,0,0,31.77,27.23Z"/><path class="cls-11" d="M31.36,27.64a.12.12,0,0,0-.12.12.12.12,0,1,0,.24,0A.12.12,0,0,0,31.36,27.64Z"/><path class="cls-11" d="M35.88,27.64a.12.12,0,0,0-.12.12.12.12,0,1,0,.24,0A.12.12,0,0,0,35.88,27.64Z"/><path class="cls-13" d="M30.51,27.62a.14.14,0,0,0-.14.14.14.14,0,0,0,.28,0A.14.14,0,0,0,30.51,27.62Zm0,.25a.1.1,0,0,1-.1-.11.1.1,0,0,1,.1-.1.11.11,0,0,1,.11.1A.11.11,0,0,1,30.51,27.87Z"/><path class="cls-31" d="M26.9,28.67a.13.13,0,0,0-.13.12.13.13,0,0,0,.13.13.13.13,0,0,0,.12-.13A.13.13,0,0,0,26.9,28.67Z"/><path class="cls-11" d="M28,27.79a.12.12,0,0,0,.12-.13.12.12,0,0,0-.12-.12.13.13,0,0,0-.12.12A.13.13,0,0,0,28,27.79Z"/><path class="cls-11" d="M29.33,27.56a.12.12,0,1,0,.12.12A.12.12,0,0,0,29.33,27.56Z"/><path class="cls-11" d="M29.8,28.06a.12.12,0,0,0,0,.24.12.12,0,0,0,0-.24Z"/><path class="cls-13" d="M32.35,28a.14.14,0,0,0,0,.28.14.14,0,0,0,0-.28Zm0,.25a.11.11,0,0,1-.11-.11.1.1,0,0,1,.11-.1.1.1,0,0,1,.1.1A.11.11,0,0,1,32.35,28.29Z"/><path class="cls-11" d="M33,28.47a.12.12,0,1,0,0,.24.12.12,0,1,0,0-.24Z"/><path class="cls-10" d="M26.89,27.8a.12.12,0,1,0-.12-.12A.12.12,0,0,0,26.89,27.8Z"/><polygon class="cls-17" points="47.93 24.93 47.93 25.43 47.8 25.43 48.11 25.77 48.41 25.43 48.28 25.43 48.28 24.93 47.93 24.93"/><polygon class="cls-33" points="47.55 25.6 47.55 26.07 48.67 26.07 48.67 25.6 48.51 25.6 48.51 25.92 47.7 25.92 47.7 25.6 47.55 25.6"/><path class="cls-13" d="M48,33.48l-.14-.6-.14.6H47.5l-.25-1.06h.22l.14.6.14-.6H48l.14.6.15-.6h.21l-.25,1.06Z"/><path class="cls-13" d="M49.3,33.48l-.14-.6-.14.6H48.8l-.25-1.06h.22l.14.6.14-.6h.22l.14.6.14-.6h.22l-.25,1.06Z"/><path class="cls-13" d="M50.6,33.48l-.15-.6-.14.6h-.22l-.25-1.06h.22l.14.6.15-.6h.21l.15.6.14-.6h.22l-.25,1.06Z"/><path class="cls-10" d="M51.16,33.44l-.41-.31s0,0,0,0h0l0,.5h0s0,0,0,0l0-.07h0l.08-.09.1.19.07,0-.1-.19h.19S51.19,33.46,51.16,33.44Z"/><path class="cls-11" d="M29.42,30.53v2.63h2.19V30.53Zm1.09,2.58a.1.1,0,0,1-.09-.1.09.09,0,0,1,.09-.09.09.09,0,0,1,.1.09A.1.1,0,0,1,30.51,33.11Zm1-.23H29.56v-2.2h1.91Z"/><path class="cls-11" d="M31.44,30.71H29.59v2.14h1.85Zm-.07,2.06H29.66v-2h1.71Z"/><path class="cls-9" d="M29.66,32.77h1.71v-2H29.66ZM31,31h.24v.24H31Zm0,.41h.24v.24H31Zm0,.4h.24V32H31ZM30.59,31h.23v.24h-.23Zm0,.41h.23v.24h-.23Zm0,.4h.23V32h-.23ZM30.21,31h.23v.24h-.23Zm0,.41h.23v.24h-.23Zm0,.4h.23V32h-.23Zm0,.41h.23v.24h-.23ZM29.84,31h.24v.24h-.24Zm0,.41h.24v.24h-.24Zm0,.4h.24V32h-.24Zm0,.41h.24v.24h-.24Z"/><path class="cls-9" d="M30.51,32.92a.09.09,0,0,0-.09.09.1.1,0,0,0,.09.1.1.1,0,0,0,.1-.1A.09.09,0,0,0,30.51,32.92Z"/><path class="cls-9" d="M29.56,32.88h1.91v-2.2H29.56Zm0-2.17h1.85v2.14H29.59Z"/><rect class="cls-10" x="29.84" y="30.96" width="0.24" height="0.24"/><rect class="cls-10" x="30.21" y="30.96" width="0.24" height="0.24"/><rect class="cls-10" x="30.59" y="30.96" width="0.24" height="0.24"/><rect class="cls-10" x="30.95" y="30.96" width="0.24" height="0.24"/><rect class="cls-10" x="29.84" y="31.37" width="0.24" height="0.24"/><rect class="cls-10" x="30.21" y="31.37" width="0.24" height="0.24"/><rect class="cls-10" x="30.59" y="31.37" width="0.24" height="0.24"/><rect class="cls-10" x="30.95" y="31.37" width="0.24" height="0.24"/><rect class="cls-10" x="29.84" y="31.77" width="0.24" height="0.24"/><rect class="cls-10" x="30.21" y="31.77" width="0.24" height="0.24"/><rect class="cls-10" x="30.59" y="31.77" width="0.24" height="0.24"/><rect class="cls-10" x="30.95" y="31.77" width="0.24" height="0.24"/><rect class="cls-10" x="29.84" y="32.18" width="0.24" height="0.24"/><rect class="cls-10" x="30.21" y="32.18" width="0.24" height="0.24"/><path class="cls-13" d="M28.11,38.08v1.3h.82v-1.3Zm.76,1.26h-.71V38.12h.71Z"/><path class="cls-13" d="M28,38v1.67h1V38Zm.51,1.62a.07.07,0,0,1-.07-.06.07.07,0,0,1,.07-.07.07.07,0,0,1,.06.07A.06.06,0,0,1,28.52,39.57Zm-.43-.16V38.05H29v1.36Z"/><path class="cls-9" d="M28.16,39.34h.71V38.12h-.71Zm.49-1.13h.13v.14h-.13Zm0,.19h.13v.13h-.13Zm0,.18h.13v.14h-.13Zm0,.19h.13v.13h-.13Zm-.2-.56h.13v.14h-.13Zm0,.19h.13v.13h-.13Zm0,.18h.13v.14h-.13Zm0,.19h.13v.13h-.13Zm0,.19h.13v.13h-.13Zm-.2-.75h.13v.14h-.13Zm0,.19h.13v.13h-.13Zm0,.18h.13v.14h-.13Zm0,.19h.13v.13h-.13Zm0,.19h.13v.13h-.13Zm0,.19h.53v.11h-.53Z"/><path class="cls-9" d="M28.52,39.44a.07.07,0,0,0-.07.07.07.07,0,0,0,.07.06.06.06,0,0,0,.06-.06A.07.07,0,0,0,28.52,39.44Z"/><rect class="cls-34" x="28.25" y="38.21" width="0.13" height="0.13"/><rect class="cls-34" x="28.45" y="38.21" width="0.13" height="0.13"/><rect class="cls-34" x="28.65" y="38.21" width="0.13" height="0.13"/><rect class="cls-34" x="28.25" y="38.4" width="0.13" height="0.13"/><rect class="cls-34" x="28.45" y="38.4" width="0.13" height="0.13"/><rect class="cls-34" x="28.65" y="38.4" width="0.13" height="0.13"/><rect class="cls-34" x="28.25" y="38.58" width="0.13" height="0.13"/><rect class="cls-34" x="28.45" y="38.58" width="0.13" height="0.13"/><rect class="cls-34" x="28.65" y="38.58" width="0.13" height="0.13"/><rect class="cls-34" x="28.25" y="38.77" width="0.13" height="0.13"/><rect class="cls-34" x="28.45" y="38.77" width="0.13" height="0.13"/><rect class="cls-34" x="28.25" y="38.96" width="0.13" height="0.13"/><rect class="cls-34" x="28.45" y="38.96" width="0.13" height="0.13"/><rect class="cls-34" x="28.65" y="38.77" width="0.13" height="0.13"/><rect class="cls-11" x="28.25" y="39.15" width="0.53" height="0.11"/><path class="cls-12" d="M28.08,38.05v1.36H29V38.05Zm0,1.33v-1.3h.82v1.3Z"/><path class="cls-11" d="M33.41,33a.18.18,0,0,0-.27,0,.19.19,0,0,0,0,.26.18.18,0,0,0,.27,0A.19.19,0,0,0,33.41,33Z"/><path class="cls-11" d="M33.72,32.69a.68.68,0,0,0-.56-.17v.26a.38.38,0,0,1,.35.11.37.37,0,0,1,.11.36l.26,0A.66.66,0,0,0,33.72,32.69Z"/><path class="cls-11" d="M34,32.39a1,1,0,0,0-.9-.28l0,.26a.77.77,0,0,1,.68.21.76.76,0,0,1,.21.7l.26,0A1,1,0,0,0,34,32.39Z"/><polygon class="cls-11" points="33.52 25.52 32.83 25.52 32.83 25.13 33.52 25.13 33.52 24.95 33.89 25.32 33.52 25.7 33.52 25.52"/><polygon class="cls-11" points="32.45 24.51 33.13 24.51 33.13 24.9 32.45 24.9 32.45 25.08 32.08 24.7 32.45 24.33 32.45 24.51"/><polygon class="cls-17" points="31.75 23.93 31.41 24.11 31.08 23.93 31.41 23.75 31.75 23.93"/><polygon class="cls-9" points="31.08 23.93 31.08 24.3 31.41 24.48 31.41 24.11 31.08 23.93"/><polygon class="cls-11" points="31.75 23.93 31.75 24.3 31.41 24.48 31.41 24.11 31.75 23.93"/><polygon class="cls-17" points="32 25.69 31.66 25.87 31.32 25.69 31.66 25.51 32 25.69"/><polygon class="cls-9" points="31.32 25.69 31.32 26.05 31.66 26.23 31.66 25.87 31.32 25.69"/><polygon class="cls-11" points="32 25.69 32 26.05 31.66 26.23 31.66 25.87 32 25.69"/><rect class="cls-13" x="31.09" y="23.13" width="0.3" height="0.3"/><rect class="cls-13" x="31.97" y="23.51" width="0.3" height="0.3"/><rect class="cls-13" x="32.4" y="25.75" width="0.3" height="0.3"/><polygon class="cls-10" points="30.98 24.65 30.41 24.95 29.85 24.65 30.41 24.35 30.98 24.65"/><polygon class="cls-9" points="29.85 24.65 29.85 25.26 30.41 25.56 30.41 24.95 29.85 24.65"/><polygon class="cls-11" points="30.98 24.65 30.98 25.26 30.41 25.56 30.41 24.95 30.98 24.65"/><rect class="cls-16" x="37.83" y="24.72" width="2.4" height="1.55"/><polygon class="cls-5" points="39.03 25.67 37.83 24.93 37.83 24.88 39.03 25.62 40.22 24.88 40.22 24.93 39.03 25.67"/><polygon class="cls-5" points="37.83 26.28 37.83 26.25 38.67 25.41 38.7 25.45 37.86 26.28 37.83 26.28"/><polygon class="cls-5" points="40.22 26.28 40.2 26.28 39.36 25.45 39.39 25.41 40.22 26.24 40.22 26.28"/><path class="cls-11" d="M38.47,23.9a.21.21,0,0,0,0,.42.21.21,0,1,0,0-.42Z"/><g class="cls-19"><g class="cls-35"><path class="cls-12" d="M38.47,24.32a.21.21,0,0,1,0-.42Z"/></g></g><polygon class="cls-9" points="50.79 36.28 51.27 37.4 51.75 38.51 52.12 37.75 50.79 36.28"/><polygon class="cls-16" points="50.79 36.28 50.31 37.4 49.84 38.51 50.79 38.51 51.75 38.51 51.27 37.4 50.79 36.28"/><polygon class="cls-9" points="48.81 35 49.08 35.62 49.34 36.23 49.55 35.81 48.81 35"/><polygon class="cls-28" points="48.81 35 48.54 35.62 48.27 36.23 48.81 36.23 49.34 36.23 49.08 35.62 48.81 35"/><circle class="cls-11" cx="52.36" cy="39.64" r="0.21"/><g class="cls-19"><g class="cls-36"><path class="cls-12" d="M52.36,39.85a.21.21,0,0,1,0-.42Z"/></g></g><path class="cls-12" d="M52.53,31.48a.53.53,0,0,0,0,1.06.53.53,0,1,0,0-1.06Z"/><g class="cls-19"><g class="cls-37"><path class="cls-12" d="M52.53,32.54a.53.53,0,1,1,0-1.06Z"/></g></g><circle class="cls-10" cx="42.25" cy="39.4" r="0.53"/><g class="cls-19"><g class="cls-38"><path class="cls-12" d="M42.25,39.93a.53.53,0,0,1,0-1.06Z"/></g></g><path class="cls-10" d="M28.6,24.91a.25.25,0,1,0,.25.25A.25.25,0,0,0,28.6,24.91Z"/><g class="cls-19"><g class="cls-39"><path class="cls-12" d="M28.85,25.16a.25.25,0,1,1-.49,0Z"/></g></g><path class="cls-10" d="M28.6,23.1a.25.25,0,1,0,.25.25A.25.25,0,0,0,28.6,23.1Z"/><g class="cls-19"><g class="cls-40"><path class="cls-12" d="M28.85,23.35a.25.25,0,0,1-.49,0Z"/></g></g><path class="cls-10" d="M27.43,26.13a.25.25,0,1,0,.24.24A.25.25,0,0,0,27.43,26.13Z"/><g class="cls-19"><g class="cls-41"><path class="cls-12" d="M27.67,26.37a.25.25,0,1,1-.49,0Z"/></g></g><circle class="cls-12" cx="35.55" cy="35.12" r="0.34"/><g class="cls-19"><g class="cls-42"><path class="cls-12" d="M35.55,35.46a.34.34,0,1,1,0-.68Z"/></g></g><circle class="cls-12" cx="35.08" cy="23.99" r="0.34"/><g class="cls-19"><g class="cls-43"><path class="cls-12" d="M35.08,24.33a.34.34,0,0,1-.34-.34.35.35,0,0,1,.34-.35Z"/></g></g><circle class="cls-12" cx="26.55" cy="30.48" r="0.34"/><g class="cls-19"><g class="cls-44"><path class="cls-12" d="M26.55,30.83a.35.35,0,0,1-.34-.35.34.34,0,0,1,.34-.34Z"/></g></g><path class="cls-12" d="M33.09,38.65a.21.21,0,0,0-.22.21.22.22,0,0,0,.22.22.21.21,0,0,0,.21-.22A.21.21,0,0,0,33.09,38.65Z"/><g class="cls-19"><g class="cls-45"><path class="cls-12" d="M33.09,39.08a.22.22,0,0,1-.22-.22.21.21,0,0,1,.22-.21Z"/></g></g><path class="cls-12" d="M27.9,35.06a.21.21,0,0,0-.21.21.21.21,0,1,0,.42,0A.21.21,0,0,0,27.9,35.06Z"/><g class="cls-19"><g class="cls-46"><path class="cls-12" d="M27.9,35.49a.21.21,0,0,1-.21-.22.21.21,0,0,1,.21-.21Z"/></g></g><path class="cls-10" d="M52.55,33.55a.25.25,0,0,0-.25-.25.25.25,0,0,0-.13.47v-.22h.25v.23A.26.26,0,0,0,52.55,33.55Z"/><path class="cls-10" d="M52.17,33.88v-.05a.31.31,0,1,1,.44-.28.3.3,0,0,1-.19.28h.08a.36.36,0,0,0,.15-.29.35.35,0,0,0-.35-.35.35.35,0,0,0-.13.68Z"/><polygon class="cls-33" points="52.35 33.56 52.24 33.56 52.24 33.62 52.35 33.62 52.35 33.62 52.35 33.56"/><polygon class="cls-33" points="52.8 33.95 52.75 33.95 52.69 33.95 52.69 34.01 52.69 34.17 52.75 34.17 52.75 34.01 52.8 34.01 52.8 34.01 52.8 33.95"/><polygon class="cls-33" points="52.8 34.61 52.8 34.61 52.86 34.61 52.86 34.44 52.8 34.44 52.8 34.61"/><polygon class="cls-33" points="52.13 34.38 52.13 34.27 52.08 34.27 52.08 34.27 52.08 34.38 52.13 34.38"/><rect class="cls-33" x="52.13" y="34.38" width="0.06" height="0.11"/><polygon class="cls-33" points="52.24 34.5 52.19 34.5 52.19 34.61 52.24 34.61 52.24 34.61 52.24 34.5"/><polygon class="cls-33" points="52.75 34.61 52.75 34.72 52.3 34.72 52.3 34.61 52.24 34.61 52.24 34.61 52.24 34.72 52.24 34.77 52.3 34.77 52.8 34.77 52.8 34.77 52.8 34.72 52.8 34.61 52.8 34.61 52.75 34.61"/><polygon class="cls-33" points="52.41 33.84 52.41 33.62 52.35 33.62 52.35 33.62 52.35 34.12 52.41 34.12 52.41 33.89 52.53 33.89 52.53 33.84 52.51 33.84 52.42 33.84 52.41 33.84"/><rect class="cls-33" x="52.86" y="34.06" width="0.06" height="0.38"/><polygon class="cls-33" points="52.53 33.9 52.53 33.95 52.53 34.11 52.58 34.11 52.58 33.95 52.69 33.95 52.69 33.9 52.58 33.9 52.53 33.9"/><polygon class="cls-33" points="52.13 34.16 52.19 34.16 52.19 34.35 52.24 34.35 52.24 33.62 52.19 33.62 52.19 34.1 52.13 34.1 52.13 34.05 52.02 34.05 51.97 34.05 51.97 34.11 51.97 34.21 52.02 34.21 52.02 34.11 52.13 34.11 52.13 34.16"/><polygon class="cls-33" points="52.8 34.01 52.8 34.06 52.86 34.06 52.86 34.01 52.8 34.01 52.8 34.01"/><polygon class="cls-33" points="52.08 34.21 52.02 34.21 52.02 34.27 52.08 34.27 52.08 34.27 52.08 34.21"/><path class="cls-17" d="M50.33,26.61a.11.11,0,0,0-.16-.07.12.12,0,0,0-.07.16.12.12,0,1,0,.23-.09Z"/><path class="cls-11" d="M50.83,25.28a.12.12,0,0,0-.16-.07.12.12,0,1,0,.16.07Z"/><path class="cls-11" d="M51.87,25.5a.12.12,0,0,0-.16-.08.13.13,0,0,0-.07.17.13.13,0,0,0,.16.07A.12.12,0,0,0,51.87,25.5Z"/><path class="cls-10" d="M52.46,24a.13.13,0,0,0-.16-.08.14.14,0,0,0-.08.17.14.14,0,0,0,.17.07A.14.14,0,0,0,52.46,24Z"/><path class="cls-11" d="M53.26,24.51a.13.13,0,0,0-.16-.07.12.12,0,0,0-.07.16.12.12,0,0,0,.16.08A.13.13,0,0,0,53.26,24.51Z"/><path class="cls-11" d="M53.73,23.72a.14.14,0,0,0-.16-.07.13.13,0,0,0-.08.16.14.14,0,0,0,.17.08A.14.14,0,0,0,53.73,23.72Z"/><path class="cls-17" d="M34.26,30.23l-.18.18.07.08.13.12.18-.18-.11-.09Z"/><path class="cls-11" d="M35.61,29.08a.89.89,0,0,0-1.26,0,.9.9,0,0,0-.09,1.15l.09.11.11.09a.89.89,0,0,0,1.15-1.35Zm-.06,1.19a.8.8,0,0,1-.57.24.77.77,0,0,1-.56-.24.8.8,0,1,1,1.13,0Z"/><path class="cls-11" d="M35.53,29.17a.76.76,0,0,0-1.09,0,.76.76,0,0,0,0,1.08.77.77,0,0,0,1.09,0A.76.76,0,0,0,35.53,29.17Zm-.1,1a.63.63,0,0,1-.89-.89.63.63,0,1,1,.89.89Z"/><circle class="cls-5" cx="34.98" cy="29.71" r="0.63"/><polygon class="cls-11" points="34.02 30.35 33.87 30.5 33.92 30.55 34.16 30.78 34.16 30.78 34.19 30.82 34.34 30.67 34.16 30.48 34.08 30.41 34.02 30.35"/><polygon class="cls-10" points="33.92 30.55 33.91 30.54 33.15 31.3 33.39 31.54 34.16 30.78 34.16 30.78 33.92 30.55"/><path class="cls-5" d="M35.55,29.14a.8.8,0,1,0-1.13,1.13.77.77,0,0,0,.56.24.81.81,0,0,0,.57-1.37Zm0,1.11a.77.77,0,0,1-1.09,0,.76.76,0,0,1,0-1.08.76.76,0,0,1,1.09,0A.76.76,0,0,1,35.53,30.25Z"/><circle class="cls-12" cx="53.49" cy="26.76" r="1.16"/><path class="cls-5" d="M53.49,27.63a.87.87,0,1,1,.87-.87A.87.87,0,0,1,53.49,27.63Zm0-1.65a.78.78,0,1,0,.77.78A.78.78,0,0,0,53.49,26Z"/><polygon class="cls-10" points="52.71 26.28 52.38 26.09 52.05 26.28 52.38 26.47 52.71 26.28"/><polygon class="cls-11" points="52.05 26.28 52.05 29.68 52.38 29.87 52.38 26.47 52.05 26.28"/><polygon class="cls-9" points="52.38 26.47 52.38 29.87 52.38 29.87 52.71 29.68 52.71 26.28 52.38 26.47"/><polygon class="cls-10" points="52.22 27.84 51.89 27.65 51.55 27.84 51.89 28.03 52.22 27.84"/><polygon class="cls-11" points="51.55 27.84 51.55 29.98 51.89 30.18 51.89 28.03 51.55 27.84"/><polygon class="cls-9" points="51.89 28.03 51.89 30.18 51.89 30.18 52.22 29.98 52.22 27.84 51.89 28.03"/><polygon class="cls-10" points="51.72 27.16 51.39 26.96 51.06 27.16 51.39 27.35 51.72 27.16"/><polygon class="cls-11" points="51.06 27.16 51.06 30.29 51.39 30.48 51.39 27.35 51.06 27.16"/><polygon class="cls-9" points="51.39 27.35 51.39 30.48 51.39 30.48 51.72 30.29 51.72 27.16 51.39 27.35"/><polygon class="cls-10" points="51.22 28.45 50.89 28.26 50.56 28.45 50.89 28.64 51.22 28.45"/><polygon class="cls-11" points="50.56 28.45 50.56 30.59 50.89 30.78 50.89 28.64 50.56 28.45"/><polygon class="cls-9" points="50.89 28.64 50.89 30.78 50.89 30.78 51.22 30.59 51.22 28.45 50.89 28.64"/><path class="cls-47" d="M15.67,25.28h1.23a0,0,0,0,1,0,0v1.55a.61.61,0,0,1-.61.61h0a.61.61,0,0,1-.61-.61V25.28A0,0,0,0,1,15.67,25.28Z"/><polygon class="cls-48" points="15.96 51.35 14.91 51.35 14.91 42.78 16.61 42.78 15.96 51.35"/><path class="cls-49" d="M14.92,51.33l-.18.84,3.74-.09a6.26,6.26,0,0,0-2.59-.75Z"/><path class="cls-48" d="M16.61,42.86h-1.7l-.84-7.11c-.24-1-.17-1.82.81-1.82h1.73Z"/><path class="cls-48" d="M18.81,42.86h-1.7l-.84-6.66c-.3-1.18.06-2.27,1.28-2.27h1.26Z"/><polygon class="cls-48" points="18.15 51.35 17.11 51.35 17.11 42.78 18.81 42.78 18.15 51.35"/><path class="cls-47" d="M19.36,34.79l1.15.68h0a.69.69,0,0,0-.19-.86l-.57-.44Z"/><path class="cls-5" d="M13.15,28.21s-.68,1.65,0,2.24,2.46,2.45,2.46,2.45l3.9,2,.3-.75-3.35-2.55L14.19,29s-.72-1.64-.85-1.38A2.73,2.73,0,0,0,13.15,28.21Z"/><path class="cls-49" d="M17.06,51.35l-.14.84,3-.09a4.48,4.48,0,0,0-2.09-.75Z"/><path class="cls-5" d="M18.81,35.14H14l-.66-7.36a1.24,1.24,0,0,1,1.31-1.15h3.16a1.23,1.23,0,0,1,1.3,1.15Z"/><path class="cls-47" d="M15.74,21.82H16.8a1,1,0,0,1,1,1v1.67A1.53,1.53,0,0,1,16.27,26h0a1.53,1.53,0,0,1-1.53-1.53V22.81a1,1,0,0,1,1-1Z"/><path class="cls-50" d="M17.91,22.63s.34-1.1-.25-1.57-1.9-.1-2.18-.44-.72,0-.75.34-.15.27-.28.42a.54.54,0,0,0-.08.54c.07.21.23.62.53.54,0,0,.33-.47.73-.36s.31.29.8.21.73-.7,1-.31S17.77,22.66,17.91,22.63Z"/><path class="cls-47" d="M19.27,29.71,21,31.3a.72.72,0,0,0,1,0l.37-.37L20.1,28.81Z"/><path class="cls-47" d="M25.67,28.57l-5.05,2.09.2.42a.7.7,0,0,0,1,.34L26,29.22Z"/><path class="cls-47" d="M26,29.22l1.17-.64h0a.69.69,0,0,0-.83-.28l-.68.27Z"/><path class="cls-5" d="M18.87,27.19l2.72,3,3.92-1.62.41.62-4,2.14a1.12,1.12,0,0,1-.86.11L19,29.57A19.78,19.78,0,0,0,18.87,27.19Z"/><path class="cls-50" d="M17.74,22.44l-.13.07s-.28.12-.23.71-.11.39-.11.39l-.14,0,.12-1.5.32.19a.41.41,0,0,0-.38.51,7.26,7.26,0,0,1-.37,2.22c-.19.31-.75.34-1.13.32a1.19,1.19,0,0,1-.65-.23h0a1.18,1.18,0,0,1-.45-.7,6.85,6.85,0,0,1-.25-2.4,6.16,6.16,0,0,1,2.07-.6,1.18,1.18,0,0,1,1.05.33l.15.15v.3"/><path class="cls-50" d="M68.14,49.15a6.72,6.72,0,0,1,.23-2.88,4.29,4.29,0,0,0,0-1.43c-.1-.49-.26-1-.34-1.48a4.62,4.62,0,0,1,.08-1.57,5.6,5.6,0,0,0,.07-1.53c0-.52-.15-1-.22-1.54a6.61,6.61,0,0,1,0-1.54A4.87,4.87,0,0,0,68,35.44c-.11-.52-.44-1-.37-1.53,0-.12-.17-.12-.18,0a2.94,2.94,0,0,0,.32,1.35,3.47,3.47,0,0,1,0,1.57,6.61,6.61,0,0,0-.07,1.54c0,.52.15,1,.22,1.55a5.57,5.57,0,0,1,0,1.58,6.76,6.76,0,0,0-.17,1.55,8.12,8.12,0,0,0,.3,1.45A4.39,4.39,0,0,1,68.22,46c-.11,1.06-.57,2.14-.25,3.21a.09.09,0,0,0,.17-.05Z"/><path class="cls-50" d="M68.07,48.25c.29-.12.59-.25.88-.39a3.52,3.52,0,0,0,.74-.46,2.21,2.21,0,0,0,.47-.7,7.53,7.53,0,0,0,.36-.89.09.09,0,0,0-.18-.05,5.58,5.58,0,0,1-.34.85,2,2,0,0,1-.47.69,3.34,3.34,0,0,1-.73.43c-.27.13-.55.25-.82.36-.11,0,0,.21.09.16Z"/><path class="cls-50" d="M68.42,45.94c.91-.45,2-1.1,2-2.23,0-.12-.17-.12-.18,0,0,1.06-1.06,1.66-1.9,2.07-.11,0,0,.21.09.16Z"/><path class="cls-50" d="M68.31,44.7a4.26,4.26,0,0,1,.63-.49,3.07,3.07,0,0,0,.53-.55A2.8,2.8,0,0,0,70,42.27c0-.12-.17-.12-.18,0a2.68,2.68,0,0,1-.55,1.34,3,3,0,0,1-.5.5,3,3,0,0,0-.6.47c-.07.08,0,.21.13.12Z"/><path class="cls-50" d="M68,43.3a2.94,2.94,0,0,0,1.21-.87,4,4,0,0,0,.57-1.36.09.09,0,0,0-.17,0,4.18,4.18,0,0,1-.53,1.29,2.71,2.71,0,0,1-1.17.83c-.11,0,0,.21.09.16Z"/><path class="cls-50" d="M68.09,41.8A2.92,2.92,0,0,0,69.61,40c0-.11-.14-.16-.17,0A2.77,2.77,0,0,1,68,41.65c-.1.05,0,.21.1.15Z"/><path class="cls-50" d="M68.19,40.59a1.48,1.48,0,0,0,.62-.69c.14-.33.23-.67.38-1,0-.11-.1-.2-.15-.09-.14.3-.24.61-.35.91a1.34,1.34,0,0,1-.59.71c-.11.06,0,.21.09.16Z"/><path class="cls-50" d="M67.93,38.9A2.87,2.87,0,0,0,69.22,37a.09.09,0,0,0-.17,0,2.74,2.74,0,0,1-1.21,1.82c-.11,0,0,.2.09.15Z"/><path class="cls-50" d="M67.83,37.68a1,1,0,0,0,.68-.59,2.72,2.72,0,0,0,.19-.47,3,3,0,0,0,.18-.58c0-.11-.15-.16-.17,0a2.44,2.44,0,0,1-.15.48,3.61,3.61,0,0,1-.17.46.91.91,0,0,1-.61.58c-.11,0-.07.2,0,.17Z"/><path class="cls-50" d="M68,35.92a1.56,1.56,0,0,0,.4-.45,4.05,4.05,0,0,0,.2-.55.09.09,0,0,0-.18-.05,2.38,2.38,0,0,1-.18.51,1.32,1.32,0,0,1-.37.41c-.09.07,0,.2.13.13Z"/><path class="cls-50" d="M67.88,35a1.78,1.78,0,0,0,.43-1.1.09.09,0,0,0-.18,0,1.62,1.62,0,0,1-.38,1c-.07.09,0,.21.13.12Z"/><path class="cls-50" d="M68,47.58a3.85,3.85,0,0,1-1.3-2.41c0-.11-.2-.11-.18,0a4.11,4.11,0,0,0,1.35,2.54c.09.07.22-.05.13-.13Z"/><path class="cls-50" d="M68.4,45.39a3.86,3.86,0,0,1-.82-.68,6.12,6.12,0,0,1-.6-.84c-.06-.1-.22,0-.16.09a7.82,7.82,0,0,0,.63.88,4.23,4.23,0,0,0,.86.71c.09.07.18-.09.09-.16Z"/><path class="cls-50" d="M68,43.9a8.32,8.32,0,0,0-.69-.63,2.29,2.29,0,0,1-.53-.74c0-.11-.22-.06-.18,0a2.48,2.48,0,0,0,.54.78c.23.24.52.42.73.68.08.09.2,0,.13-.13Z"/><path class="cls-50" d="M67.92,42.38a6.64,6.64,0,0,1-.84-1.31c0-.11-.21,0-.16.09a7,7,0,0,0,.87,1.34c.07.09.2,0,.13-.12Z"/><path class="cls-50" d="M68.15,41.24a4.13,4.13,0,0,1-1.42-1.79c0-.11-.21-.06-.17,0A4.24,4.24,0,0,0,68,41.37c.09.07.22,0,.13-.13Z"/><path class="cls-50" d="M68.11,40c-.08,0-.14-.11-.2-.16l-.2-.2a5.14,5.14,0,0,1-.38-.42,2.41,2.41,0,0,1-.49-1c0-.11-.2-.06-.17.05a2.57,2.57,0,0,0,.53,1,4.79,4.79,0,0,0,.43.47l.23.23a.48.48,0,0,0,.2.14.09.09,0,0,0,0-.18Z"/><path class="cls-50" d="M67.86,38.37a4,4,0,0,0-.88-.92l-.51-.37c-.09-.06-.18-.14-.27-.21S66,36.7,66,36.61s-.16-.16-.17,0,.17.36.32.48a5.61,5.61,0,0,0,.55.41,4.16,4.16,0,0,1,1,1c.06.09.22,0,.15-.1Z"/><path class="cls-50" d="M67.9,37a2.63,2.63,0,0,1-.64-.56,2,2,0,0,1-.3-.73c0-.12-.2-.07-.17.05a2,2,0,0,0,.34.8,2.56,2.56,0,0,0,.68.59c.09.07.18-.09.09-.15Z"/><path class="cls-50" d="M67.92,35.47A1.17,1.17,0,0,1,67,34.7c0-.11-.22-.06-.18,0a1.35,1.35,0,0,0,1.06.89c.11,0,.16-.15,0-.17Z"/><circle class="cls-51" cx="66.64" cy="45.17" r="0.89"/><circle class="cls-51" cx="69.52" cy="41.54" r="0.89"/><circle class="cls-51" cx="67.85" cy="39.68" r="0.89"/><circle class="cls-51" cx="65.99" cy="36.7" r="0.89"/><circle class="cls-51" cx="68.54" cy="34.96" r="0.89"/><circle class="cls-51" cx="70.41" cy="45.66" r="0.89"/><circle class="cls-51" cx="66.65" cy="42.28" r="0.89"/><path class="cls-50" d="M66.79,48.87s-1-3.34-2-4.43l.13-.12c1.06,1.12,2,4.37,2.07,4.5Z"/><circle class="cls-6" cx="64.83" cy="44.38" r="0.32"/><path class="cls-50" d="M69.8,49.44l-.16-.07s2.19-5.07,2.5-5.8l.17.07C72,44.37,69.83,49.39,69.8,49.44Z"/><circle class="cls-6" cx="72.22" cy="43.6" r="1.48"/><path class="cls-50" d="M71.35,49.75l-.17-.08s1.54-3,1.79-3.74l.17.06C72.89,46.76,71.41,49.63,71.35,49.75Z"/><path class="cls-6" d="M72.57,47.17a2.31,2.31,0,0,0,1.13-2.52A2.4,2.4,0,0,0,72.57,47.17Z"/><path class="cls-50" d="M65.74,49.34s-.74-2.28-1-2.79l.16-.08c.26.52,1,2.72,1,2.81Z"/><path class="cls-6" d="M65.19,47.37a1.67,1.67,0,0,0-.72-1.85A1.72,1.72,0,0,0,65.19,47.37Z"/><path class="cls-50" d="M72,49.81l-.15-.11a12.48,12.48,0,0,1,1.85-2l.11.15A12.74,12.74,0,0,0,72,49.81Z"/><circle class="cls-6" cx="73.74" cy="47.73" r="0.24"/><path class="cls-52" d="M63.53,51.16H74.08a2.48,2.48,0,0,0-2.47-2.47H66a2.48,2.48,0,0,0-2.47,2.47Z"/><path class="cls-53" d="M38.08,33l-.42.7.64.65L39,34a2.48,2.48,0,0,0,.58.25l.19.79h.92l.19-.79a2.55,2.55,0,0,0,.59-.25l.7.43.65-.65L42.4,33a2.09,2.09,0,0,0,.24-.58l.8-.2v-.91l-.8-.2a2.23,2.23,0,0,0-.24-.58l.43-.7-.65-.65-.7.43a2.55,2.55,0,0,0-.59-.25l-.19-.79h-.92l-.19.8a2.09,2.09,0,0,0-.58.24l-.71-.43-.64.65.42.7a3.23,3.23,0,0,0-.24.58l-.8.2v.91l.8.2A3,3,0,0,0,38.08,33Zm1-1.23A1.17,1.17,0,1,1,40.24,33,1.17,1.17,0,0,1,39.07,31.81Z"/></g></g></g></svg>