<svg xmlns="http://www.w3.org/2000/svg" viewBox="0 0 84.27 56.75"><defs><style>.cls-1{isolation:isolate;}.cls-2{fill:#e9f0f9;}.cls-3{fill:#fff;}.cls-4{fill:#babcbe;}.cls-5{fill:#6e6f71;opacity:0.8;}.cls-24,.cls-5{mix-blend-mode:multiply;}.cls-24,.cls-6{fill:#56c1ee;}.cls-7{fill:#bfbdbe;mix-blend-mode:darken;}.cls-8{fill:#2280bd;}.cls-9{fill:#152247;}.cls-10{fill:#fcccbc;}.cls-11{fill:#594e70;}.cls-12{fill:#2d2d2d;}.cls-13{fill:#de4635;}.cls-14{fill:#414142;}.cls-15{fill:#fef6e3;}.cls-16{fill:#2aaae2;}.cls-17{fill:#3f67b1;}.cls-18{fill:#dfe6f4;}.cls-19{fill:#979899;}.cls-20,.cls-21{fill:#f2f2f3;}.cls-20,.cls-21,.cls-22{stroke:#ddd;stroke-miterlimit:10;}.cls-20{stroke-width:0.05px;}.cls-21{stroke-width:0.02px;}.cls-22{fill:none;stroke-width:0.01px;}.cls-23{fill:#82cfec;}.cls-25{fill:#8a5e3c;}.cls-26{fill:#6bbd65;}</style></defs><title>Drupal Developers Studio</title><g class="cls-1"><g id="Layer_2" data-name="Layer 2"><g id="Layer_1-2" data-name="Layer 1"><path class="cls-2" d="M74.82,56.05c2.45-.48,4.34-2.92,5.94-5.18a18.86,18.86,0,0,0,3.45-9.17,13.72,13.72,0,0,0-2.49-9.44c-3.24-4.13-8.92-4.73-11.85-9.19-2.2-3.37-2.58-8.58-5.75-10.59a6.59,6.59,0,0,0-5.77-.21,55.37,55.37,0,0,1-5.64,2.16,9.61,9.61,0,0,1-5.89-.52c-3.34-1.4-5.91-4.56-8.8-7S31.27,2.76,28.09,4.6c-3.68,2.13-4.66,7.86-7.61,11.23-4,4.61-11,4-15,8.58-3,3.43-3.28,9-2.26,13.86C4.58,44.73-2.51,48.73,1,54.16c3.17,4.94,15.38-.45,18.45.28,5.14,1.22,15.08,2.18,22.64.3C50.45,52.65,61.16,58.74,74.82,56.05Z"/><circle class="cls-2" cx="17.69" cy="12.92" r="1.97"/><circle class="cls-2" cx="65.5" cy="10.81" r="1.14"/><circle class="cls-2" cx="22.39" cy="6.12" r="0.71"/><circle class="cls-2" cx="80.32" cy="27.55" r="1.73"/><circle class="cls-2" cx="5.99" cy="20.79" r="0.98"/><circle class="cls-2" cx="47.74" cy="8.09" r="3.26"/><circle class="cls-2" cx="38.8" cy="0.71" r="0.71"/><circle class="cls-2" cx="5.58" cy="13.09" r="0.71"/><rect class="cls-3" x="14.76" y="38.01" width="44.47" height="0.91"/><polygon class="cls-4" points="57.8 39.8 16.2 39.8 14.76 38.91 59.23 38.91 57.8 39.8"/><rect class="cls-4" x="16.23" y="39.8" width="1.04" height="11.43"/><rect class="cls-4" x="56.69" y="39.8" width="1.04" height="11.43"/><rect class="cls-5" x="56.69" y="39.8" width="1.04" height="0.68"/><rect class="cls-5" x="16.23" y="39.8" width="1.04" height="0.68"/><path class="cls-6" d="M51.64,35.68h0v-.23a.18.18,0,0,0-.18-.18H49.91a.18.18,0,0,0-.18.18v2.37a.18.18,0,0,0,.18.18h1.55a.18.18,0,0,0,.18-.18v-.45h0a.85.85,0,1,0,0-1.69Zm0,1.49h0V35.88h0a.65.65,0,1,1,0,1.29Z"/><path class="cls-3" d="M50.58,34.61h.16V33.4h-.16Zm-.45.35h.16V33.69h-.16Zm1-1.27V35h.16V33.69Z"/><polygon class="cls-7" points="43.22 30.35 43.04 29.26 40.33 29.26 40.14 30.35 43.22 30.35"/><polygon class="cls-3" points="41 37.88 37.17 37.88 37.72 34.41 40.44 34.41 41 37.88"/><rect class="cls-8" x="29.24" y="22.9" width="19.68" height="12.05" rx="0.76" ry="0.76"/><rect class="cls-3" x="29.77" y="23.38" width="18.62" height="10" rx="0.44" ry="0.44"/><rect class="cls-3" x="36.07" y="37.75" width="6.01" height="0.27"/><path class="cls-3" d="M29.24,33.88v.31A.76.76,0,0,0,30,35H48.16a.76.76,0,0,0,.76-.76v-.31Z"/><path class="cls-9" d="M33.4,40l-.57,2.3-7.67-.71c-1.4.08-2.49-.7-2.08-2.34l.45-1.65Z"/><path class="cls-9" d="M36.6,40.1l-.17,2.11-7.65-.55c-1.6-.14-2.73-.78-2.46-2.15l.31-1.37Z"/><path class="cls-10" d="M25.82,27.36h.59a.41.41,0,0,1,.41.41v2.07a0,0,0,0,1,0,0h-1.4a0,0,0,0,1,0,0V27.76A.41.41,0,0,1,25.82,27.36Z" transform="translate(52.23 57.19) rotate(180)"/><path class="cls-10" d="M32.16,37.2l1.3.78h0a.79.79,0,0,0-.2-1l-.66-.5Z"/><path class="cls-3" d="M25.07,29.71s-.77,1.87,0,2.55,2.81,2.79,2.81,2.79l4.45,2.31.34-.86-3.82-2.91-2.59-3s-.82-1.87-1-1.57A3.15,3.15,0,0,0,25.07,29.71Z"/><path class="cls-3" d="M28.19,38.34H23.31l-.75-8.19a1.4,1.4,0,0,1,1.49-1.28h3.6a1.4,1.4,0,0,1,1.49,1.28Z"/><path class="cls-10" d="M25.49,23.38H26.7a1.13,1.13,0,0,1,1.13,1.13v1.91a1.74,1.74,0,0,1-1.74,1.74h0a1.74,1.74,0,0,1-1.74-1.74V24.51a1.13,1.13,0,0,1,1.13-1.13Z"/><path class="cls-11" d="M24.5,24.44s-.39-1.26.29-1.79,2.16-.12,2.48-.5.82,0,.86.38.17.31.31.48a.62.62,0,0,1,.1.62c-.08.23-.27.7-.6.61,0,0-.38-.54-.83-.42s-.36.34-.92.25-.84-.8-1.11-.36S24.65,24.46,24.5,24.44Z"/><path class="cls-10" d="M35.27,37.28l1.3.78h0a.78.78,0,0,0-.21-1l-.65-.5Z"/><path class="cls-3" d="M28.18,29.78s-.78,1.88,0,2.56S31,35.13,31,35.13l4.44,2.31.35-.86L32,33.67l-2.6-3s-.81-1.88-1-1.57A3.15,3.15,0,0,0,28.18,29.78Z"/><polygon class="cls-9" points="33.46 49.75 32.27 49.75 32.27 39.97 34.21 39.97 33.46 49.75"/><polygon class="cls-9" points="35.88 49.98 34.69 49.98 34.69 40.2 36.62 40.2 35.88 49.98"/><path class="cls-11" d="M27.7,23.79l-.17.08s-.33.15-.28.86-.12.47-.12.47l-.17.05.15-1.81.38.23a.5.5,0,0,0-.46.62A8.66,8.66,0,0,1,26.58,27c-.23.37-.9.41-1.36.38a1.4,1.4,0,0,1-.78-.28h0a1.42,1.42,0,0,1-.55-.84c-.18-.88-.51-2.6-.3-2.9a7.53,7.53,0,0,1,2.5-.73,1.41,1.41,0,0,1,1.26.41l.18.18v.36"/><path class="cls-12" d="M32.18,49.7,31.89,51l4.6.11a6.69,6.69,0,0,0-3.13-1.31Z"/><path class="cls-12" d="M34.65,49.91l-.29,1.27,4.6.09A6.71,6.71,0,0,0,35.84,50Z"/><path class="cls-13" d="M28.7,31.85H22.32a1.87,1.87,0,0,0-2,1.66V36a1.87,1.87,0,0,0,2,1.67H28.7a1.86,1.86,0,0,0,2-1.67V33.51A1.86,1.86,0,0,0,28.7,31.85Z"/><path class="cls-13" d="M31.22,41.75H22.1a1.21,1.21,0,1,0,0,2.39h9.12a1.21,1.21,0,1,0,0-2.39Z"/><path class="cls-14" d="M26.11,38.53a.16.16,0,0,0,.12-.15.15.15,0,0,0-.15-.15h-.27v-.82a.67.67,0,0,0,.37-.6v-2a.68.68,0,0,0-1.35,0v2a.66.66,0,0,0,.38.6v.82h-.28a.15.15,0,0,0-.15.15.16.16,0,0,0,.12.15.14.14,0,0,0,0,.28.16.16,0,0,0-.12.15.14.14,0,0,0,.12.14.15.15,0,0,0-.12.15.14.14,0,0,0,.12.14.15.15,0,0,0-.12.15.14.14,0,0,1,0,.28.15.15,0,0,0,.12.15.14.14,0,0,0-.12.14.16.16,0,0,0,.12.15.14.14,0,0,0,0,.28.16.16,0,0,0-.12.15.14.14,0,0,0,.12.14.16.16,0,0,0-.12.15.15.15,0,0,0,.15.15h.28v1.55c0,.06,0,.12,0,.18a1.83,1.83,0,0,0,.36,1.39,1.57,1.57,0,0,0,.81.38v2.64H26v2.84h-2.1a.58.58,0,0,0-.26.06l-1.26.7a.19.19,0,0,0,.1.36h8.92a.19.19,0,0,0,.09-.36l-1.25-.7a.58.58,0,0,0-.26-.06H27.83V47.27h-.41V44.84h.48a.16.16,0,0,0,.14.08h1.11a.16.16,0,0,0,0-.32H28a.16.16,0,0,0-.14.08h-.48v-.57h-.18A1.87,1.87,0,0,1,26,43.82c-.18-.18-.19-.48-.18-1V41.13h.27a.15.15,0,0,0,.15-.15.16.16,0,0,0-.12-.15.14.14,0,0,0,.12-.14.16.16,0,0,0-.12-.15.14.14,0,0,0,0-.28.16.16,0,0,0,.12-.15.14.14,0,0,0-.12-.14.15.15,0,0,0,.12-.15.14.14,0,0,1,0-.28.15.15,0,0,0-.12-.15.14.14,0,0,0,.12-.14.15.15,0,0,0-.12-.15.14.14,0,0,0,.12-.14.16.16,0,0,0-.12-.15.14.14,0,0,0,0-.28Z"/><path class="cls-15" d="M56.82,36.14a1.52,1.52,0,1,1-1.52-1.52A1.52,1.52,0,0,1,56.82,36.14Z"/><path class="cls-14" d="M55.39,36.14a.09.09,0,0,1-.09.08.09.09,0,0,1-.08-.08.09.09,0,0,1,.08-.09A.09.09,0,0,1,55.39,36.14Z"/><path class="cls-14" d="M53.39,34.91a.55.55,0,0,0,.17.77l.6-.94A.55.55,0,0,0,53.39,34.91Zm3.83,0a.55.55,0,0,0-.77-.17l.6.94A.56.56,0,0,0,57.22,34.91Zm-.29,1.24a1.63,1.63,0,1,0-2.73,1.2L54,37.7a.08.08,0,0,0,0,.09.06.06,0,0,0,.09,0l.17-.31a1.58,1.58,0,0,0,1,.33,1.56,1.56,0,0,0,1-.33l.18.31s0,.05.08,0,0,0,0-.09l-.17-.35A1.62,1.62,0,0,0,56.93,36.15Zm-1.63,1.4a1.4,1.4,0,1,1,1.41-1.4A1.4,1.4,0,0,1,55.3,37.55Z"/><rect class="cls-14" x="55.28" y="34.85" width="0.05" height="0.21"/><rect class="cls-14" x="55.28" y="35.19" width="0.05" height="0.93"/><rect class="cls-14" x="55.52" y="36" width="0.05" height="0.62" transform="translate(117.44 12.36) rotate(125.68)"/><rect class="cls-14" x="56.46" y="36.03" width="0.05" height="0.21" transform="translate(92.62 -20.35) rotate(90)"/><rect class="cls-14" x="55.28" y="37.21" width="0.05" height="0.21" transform="translate(110.61 74.64) rotate(180)"/><rect class="cls-14" x="54.1" y="36.03" width="0.05" height="0.21" transform="translate(17.98 90.26) rotate(-90)"/><rect class="cls-3" x="54.05" y="24.19" width="9.58" height="7.74"/><polygon class="cls-16" points="54 25.67 54.02 25.48 53.84 25.53 53.85 25.34 53.68 25.39 54.99 23.84 54.95 24.02 55.16 23.99 55.15 24.18 55.32 24.12 54 25.67"/><polygon class="cls-16" points="62.47 24.01 62.64 24.03 62.6 23.86 62.78 23.87 62.73 23.7 64.22 24.97 64.05 24.93 64.08 25.13 63.9 25.11 63.95 25.28 62.47 24.01"/><rect class="cls-17" x="54.79" y="26.59" width="7.99" height="1.97"/><rect class="cls-18" x="54.8" y="28.99" width="2.35" height="0.94"/><rect class="cls-3" x="55.12" y="27.64" width="0.53" height="0.1"/><rect class="cls-18" x="55.13" y="27.83" width="3.08" height="0.12"/><rect class="cls-18" x="55.13" y="28.02" width="1.65" height="0.12"/><rect class="cls-18" x="58.52" y="25.97" width="0.53" height="0.12"/><rect class="cls-18" x="59.22" y="25.97" width="0.77" height="0.12"/><rect class="cls-18" x="60.16" y="25.97" width="0.77" height="0.12"/><rect class="cls-18" x="61.07" y="25.97" width="0.77" height="0.12"/><rect class="cls-18" x="62.01" y="25.97" width="0.77" height="0.12"/><rect class="cls-13" x="54.73" y="25.89" width="2.49" height="0.27"/><rect class="cls-18" x="54.81" y="30.1" width="1.08" height="0.17"/><rect class="cls-18" x="54.81" y="30.35" width="2.02" height="0.11"/><rect class="cls-18" x="54.81" y="30.53" width="2.24" height="0.11"/><rect class="cls-18" x="57.67" y="28.98" width="2.35" height="0.94"/><rect class="cls-18" x="57.68" y="30.08" width="1.08" height="0.17"/><rect class="cls-18" x="57.68" y="30.33" width="2.02" height="0.11"/><rect class="cls-18" x="57.68" y="30.51" width="2.24" height="0.11"/><rect class="cls-18" x="60.39" y="29" width="2.35" height="0.94"/><rect class="cls-18" x="60.4" y="30.1" width="1.08" height="0.17"/><rect class="cls-18" x="60.4" y="30.35" width="2.02" height="0.11"/><rect class="cls-18" x="60.4" y="30.53" width="2.24" height="0.11"/><polygon class="cls-3" points="61.41 29.45 61.59 29.56 61.41 29.66 61.41 29.45"/><path class="cls-3" d="M61.47,29.36a.2.2,0,0,0-.19.2.2.2,0,0,0,.19.19.2.2,0,1,0,0-.39Zm0,.37a.17.17,0,0,1-.17-.17.17.17,0,0,1,.17-.18.18.18,0,0,1,.18.18A.18.18,0,0,1,61.47,29.73Z"/><ellipse class="cls-19" cx="30.49" cy="51.22" rx="10.8" ry="0.18"/><rect class="cls-18" x="38.44" y="24.62" width="1.06" height="0.24"/><rect class="cls-18" x="39.83" y="24.62" width="1.54" height="0.24"/><rect class="cls-18" x="41.71" y="24.62" width="1.54" height="0.24"/><rect class="cls-18" x="43.53" y="24.62" width="1.54" height="0.24"/><rect class="cls-18" x="45.4" y="24.62" width="1.54" height="0.24"/><rect class="cls-13" x="30.87" y="24.47" width="4.97" height="0.54"/><rect class="cls-20" x="30.86" y="25.73" width="15.98" height="3.83"/><rect class="cls-3" x="31.51" y="27.84" width="1.05" height="0.21"/><rect class="cls-18" x="31.53" y="28.21" width="6.17" height="0.24"/><rect class="cls-18" x="31.53" y="28.6" width="3.3" height="0.24"/><polygon class="cls-3" points="39.62 29.5 41.11 26.68 43.33 29.38 43.99 28.08 45.36 29.5 39.62 29.5"/><rect class="cls-21" x="30.86" y="30.23" width="4.58" height="2.52"/><rect class="cls-21" x="36.56" y="30.23" width="4.58" height="2.52"/><rect class="cls-21" x="42.26" y="30.23" width="4.58" height="2.52"/><line class="cls-22" x1="30.86" y1="32.75" x2="35.44" y2="30.23"/><line class="cls-22" x1="35.44" y1="32.75" x2="30.86" y2="30.23"/><line class="cls-22" x1="36.56" y1="32.75" x2="41.14" y2="30.23"/><line class="cls-22" x1="41.14" y1="32.75" x2="36.56" y2="30.23"/><line class="cls-22" x1="42.26" y1="32.75" x2="46.84" y2="30.23"/><line class="cls-22" x1="46.84" y1="32.75" x2="42.26" y2="30.23"/><polygon class="cls-23" points="68.66 51.22 64.8 51.22 63.78 47.1 69.67 47.1 68.66 51.22"/><polygon class="cls-24" points="64.01 48.04 64.24 48.96 69.22 48.96 69.44 48.04 64.01 48.04"/><rect class="cls-25" x="66.44" y="41.17" width="0.59" height="5.8"/><rect class="cls-23" x="63.38" y="46.97" width="6.69" height="1.37"/><path class="cls-26" d="M69.94,42.4a2.32,2.32,0,0,1-2.88,1.76,2.34,2.34,0,0,1,2.88-1.76Z"/><path class="cls-26" d="M69.9,44.59a2.81,2.81,0,0,1-1.06,1.5,2.74,2.74,0,0,1-1.82.26,2.35,2.35,0,0,1,2.88-1.76Z"/><path class="cls-26" d="M69.32,39.71a2.72,2.72,0,0,1-.62,1.72,2.76,2.76,0,0,1-1.68.75,2.33,2.33,0,0,1,2.3-2.47Z"/><path class="cls-26" d="M66.44,45.4a2.78,2.78,0,0,1-1.83-.2,2.82,2.82,0,0,1-1.12-1.46,2.85,2.85,0,0,1,1.83.2A2.82,2.82,0,0,1,66.44,45.4Z"/><path class="cls-26" d="M66.46,43.54a2.36,2.36,0,0,1-2.33-2.45,2.34,2.34,0,0,1,2.33,2.45Z"/><path class="cls-26" d="M65.21,38.15a2.31,2.31,0,0,0,1.3,3.11,2.34,2.34,0,0,0-1.3-3.11Z"/></g></g></g></svg>